<?xml version="1.0" encoding="UTF-8" standalone="no"?>
<svg
   xmlns:dc="http://purl.org/dc/elements/1.1/"
   xmlns:cc="http://creativecommons.org/ns#"
   xmlns:rdf="http://www.w3.org/1999/02/22-rdf-syntax-ns#"
   xmlns:svg="http://www.w3.org/2000/svg"
   xmlns="http://www.w3.org/2000/svg"
   xmlns:sodipodi="http://sodipodi.sourceforge.net/DTD/sodipodi-0.dtd"
   xmlns:inkscape="http://www.inkscape.org/namespaces/inkscape"
   inkscape:version="1.0 (4035a4f, 2020-05-01)"
   sodipodi:docname="cleaning-spray.svg"
   version="1.1"
   width="512"
   viewBox="0 0 64 64"
   height="512"
   enable-background="new 0 0 64 64"
   id="Layer_1_1_">
  <metadata
     id="metadata853">
    <rdf:RDF>
      <cc:Work
         rdf:about="">
        <dc:format>image/svg+xml</dc:format>
        <dc:type
           rdf:resource="http://purl.org/dc/dcmitype/StillImage" />
      </cc:Work>
    </rdf:RDF>
  </metadata>
  <defs
     id="defs851" />
  <sodipodi:namedview
     inkscape:current-layer="Layer_1_1_"
     inkscape:window-maximized="1"
     inkscape:window-y="25"
     inkscape:window-x="0"
     inkscape:cy="368.93639"
     inkscape:cx="309.72788"
     inkscape:zoom="0.77139083"
     showgrid="false"
     id="namedview849"
     inkscape:window-height="912"
     inkscape:window-width="1680"
     inkscape:pageshadow="2"
     inkscape:pageopacity="0"
     guidetolerance="10"
     gridtolerance="10"
     objecttolerance="10"
     borderopacity="1"
     bordercolor="#666666"
     pagecolor="#ffffff" />
  <path
     style="fill:#00ccff"
     id="path844"
     d="m22 62h18c3.309 0 6-2.691 6-6v-18c0-4.549-4.282-7.151-7.724-9.242-2.102-1.278-4.276-2.598-4.276-3.758v-6c0-.552-.447-1-1-1v-3h5.689c.872.592 1.864 1.036 2.951 1.278l3.143.698.434-1.952-3.143-.698c-2.656-.59-4.6-2.712-4.999-5.326h2.925 3 4c.553 0 1-.448 1-1v-5c0-.552-.447-1-1-1h-4-18c-5.378 0-6 3.995-6 7v4c0 .552.447 1 1 1h4v4c-.553 0-1 .448-1 1 0 .864.144 1.653.282 2.417.167.921.325 1.791.21 2.706-.233 1.858-.92 3.657-1.604 5.341-3.221 7.942-5.888 15.187-5.888 23.439v3.097c0 3.309 2.691 6 6 6zm24-55h-2v-3h2zm-10.871 2.486c.226 1.295.747 2.488 1.494 3.514h-3.623c0-1.526.869-2.839 2.129-3.514zm-10.129 2.514h-4v-3c0-3.738 1.01-5 4-5h17v3h-2-3-1c-.232 0-.437.092-.606.225-2.53.705-4.394 3.023-4.394 5.775v5h-5v-5c0-.552-.447-1-1-1zm-7 40.903c0-7.891 2.601-14.944 5.742-22.688.701-1.727 1.471-3.746 1.734-5.844.153-1.22-.04-2.283-.227-3.312-.065-.361-.13-.711-.176-1.059h6.927v5c0 2.285 2.428 3.759 5.237 5.467 3.17 1.926 6.763 4.109 6.763 7.533v18c0 2.206-1.794 4-4 4h-18c-2.206 0-4-1.794-4-4z" />
  <path
     style="fill:#00ccff"
     id="path846"
     d="m32 56c5.514 0 10-4.935 10-11s-4.486-11-10-11-10 4.935-10 11 4.486 11 10 11zm0-20c4.411 0 8 4.038 8 9s-3.589 9-8 9-8-4.038-8-9 3.589-9 8-9z" />
</svg>
