<?xml version="1.0" encoding="UTF-8" standalone="no"?>
<svg
   xmlns:dc="http://purl.org/dc/elements/1.1/"
   xmlns:cc="http://creativecommons.org/ns#"
   xmlns:rdf="http://www.w3.org/1999/02/22-rdf-syntax-ns#"
   xmlns:svg="http://www.w3.org/2000/svg"
   xmlns="http://www.w3.org/2000/svg"
   xmlns:sodipodi="http://sodipodi.sourceforge.net/DTD/sodipodi-0.dtd"
   xmlns:inkscape="http://www.inkscape.org/namespaces/inkscape"
   inkscape:version="1.0 (4035a4f, 2020-05-01)"
   sodipodi:docname="floor-polisher.svg"
   version="1.1"
   width="512"
   viewBox="0 0 64 64"
   height="512"
   enable-background="new 0 0 64 64"
   id="icons">
  <metadata
     id="metadata844">
    <rdf:RDF>
      <cc:Work
         rdf:about="">
        <dc:format>image/svg+xml</dc:format>
        <dc:type
           rdf:resource="http://purl.org/dc/dcmitype/StillImage" />
      </cc:Work>
    </rdf:RDF>
  </metadata>
  <defs
     id="defs842" />
  <sodipodi:namedview
     inkscape:current-layer="icons"
     inkscape:window-maximized="1"
     inkscape:window-y="25"
     inkscape:window-x="0"
     inkscape:cy="299.15407"
     inkscape:cx="258.0936"
     inkscape:zoom="1.0832694"
     showgrid="false"
     id="namedview840"
     inkscape:window-height="914"
     inkscape:window-width="1680"
     inkscape:pageshadow="2"
     inkscape:pageopacity="0"
     guidetolerance="10"
     gridtolerance="10"
     objecttolerance="10"
     borderopacity="1"
     bordercolor="#666666"
     pagecolor="#ffffff" />
  <path
     style="fill:#00ccff"
     id="path833"
     d="m49.488 54.008h-1.002c0-.001 0-.001 0-.002v-3.002c0-1.654-1.346-3-3-3h-2.006v-8.012c0-1.654-1.346-3-3-3h-11.955c-.009 0-.016.005-.024.005-.005 0-.01-.003-.015-.003-1.654 0-3 1.346-3 3v1.014h-4.994v-31.014h1.998c.553 0 1-.447 1-1v-8.002c0-.553-.447-1-1-1h-10c-.553 0-1 .447-1 1v8.002c0 .553.447 1 1 1h2.027v4.911c-.007.047-.027.088-.027.136s.021.089.027.136v33.415c-2.93 1.189-5.004 4.063-5.004 7.414 0 4.412 3.59 8.002 8.002 8.002 2.954 0 5.533-1.613 6.92-4.002h2.156c.464 2.279 2.484 4 4.898 4h17.998c2.756 0 4.998-2.243 4.998-5 .001-2.756-2.241-4.998-4.997-4.998zm-10.023-6.004v-4.996h2.016v4.996zm-3.975 0v-4.996h1.975v4.996zm-3.974 0v-4.996h1.975v4.996zm-4.03 0v-4.996h2.029v4.996zm0-8.01c0-.552.448-1 1-1 .009 0 .016-.005.024-.005.005 0 .01.003.015.003h11.955c.552 0 1 .448 1 1v1.016h-13.994zm-2 3.014v4.996h-4.994v-4.996zm-11.996-41.016h4 4v6.002h-8zm5.002 8.002v4.047h-1.975v-4.047zm-1.974 6.047h1.975v32.028c-.32-.039-.646-.065-.977-.065-.339 0-.67.028-.998.069zm.998 45.967c-3.31 0-6.002-2.692-6.002-6.002s2.692-6.002 6.002-6.002 6.002 2.692 6.002 6.002-2.693 6.002-6.002 6.002zm5.274-12.004h7.706c.007 0 .013.004.02.004s.013-.004.02-.004h3.936c.007 0 .013.004.02.004s.013-.004.02-.004h3.936c.007 0 .013.004.02.004s.013-.004.02-.004h7.002c.552 0 1 .448 1 1v3.002.002h-14.99c-.004 0-.006-.002-.01-.002-2.414 0-4.435 1.721-4.898 4h-1.338c.166-.641.264-1.309.264-2 0-2.391-1.06-4.534-2.728-6.002zm26.698 12.002h-17.998c-1.654 0-3-1.346-3-3 0-1.652 1.342-2.996 2.993-2.999.003 0 .005.001.007.001h17.998c1.653 0 2.998 1.345 2.998 2.998 0 1.654-1.344 3-2.998 3z" />
  <path
     style="fill:#00ccff"
     id="path835"
     d="m17.514 52.004c-2.207 0-4.002 1.795-4.002 4.002s1.795 4.002 4.002 4.002 4.002-1.795 4.002-4.002-1.795-4.002-4.002-4.002zm0 6.004c-1.104 0-2.002-.898-2.002-2.002s.898-2.002 2.002-2.002 2.002.898 2.002 2.002-.899 2.002-2.002 2.002z" />
  <path
     style="fill:#00ccff"
     id="path837"
     d="m14.49 4.992c0 1.654 1.346 3 3 3s3-1.346 3-3-1.346-3-3-3-3 1.346-3 3zm3-1c.552 0 1 .448 1 1s-.448 1-1 1-1-.448-1-1 .448-1 1-1z" />
</svg>
