<?xml version="1.0" encoding="UTF-8" standalone="no"?>
<svg
   xmlns:dc="http://purl.org/dc/elements/1.1/"
   xmlns:cc="http://creativecommons.org/ns#"
   xmlns:rdf="http://www.w3.org/1999/02/22-rdf-syntax-ns#"
   xmlns:svg="http://www.w3.org/2000/svg"
   xmlns="http://www.w3.org/2000/svg"
   xmlns:sodipodi="http://sodipodi.sourceforge.net/DTD/sodipodi-0.dtd"
   xmlns:inkscape="http://www.inkscape.org/namespaces/inkscape"
   inkscape:version="1.0 (4035a4f, 2020-05-01)"
   sodipodi:docname="house-key.svg"
   xml:space="preserve"
   style="enable-background:new 0 0 512.002 512.002;"
   viewBox="0 0 512.002 512.002"
   y="0px"
   x="0px"
   id="Layer_1"
   version="1.1"><metadata
   id="metadata880"><rdf:RDF><cc:Work
       rdf:about=""><dc:format>image/svg+xml</dc:format><dc:type
         rdf:resource="http://purl.org/dc/dcmitype/StillImage" /></cc:Work></rdf:RDF></metadata><defs
   id="defs878" /><sodipodi:namedview
   inkscape:current-layer="Layer_1"
   inkscape:window-maximized="1"
   inkscape:window-y="25"
   inkscape:window-x="0"
   inkscape:cy="293.01545"
   inkscape:cx="294.60178"
   inkscape:zoom="1.1118203"
   showgrid="false"
   id="namedview876"
   inkscape:window-height="914"
   inkscape:window-width="1680"
   inkscape:pageshadow="2"
   inkscape:pageopacity="0"
   guidetolerance="10"
   gridtolerance="10"
   objecttolerance="10"
   borderopacity="1"
   bordercolor="#666666"
   pagecolor="#ffffff" />
<g
   style="fill:#00ccff"
   id="g837">
	<g
   style="fill:#00ccff"
   id="g835">
		<path
   style="fill:#00ccff"
   id="path833"
   d="M339.869,435.71c-4.159-0.586-7.999,2.326-8.577,6.486l-6.327,45.571H74.272l-31.199-224.72    c-0.522-3.759-3.736-6.558-7.531-6.558H19.089L56.8,221.109c3.062-2.873,3.216-7.686,0.343-10.748    c-2.873-3.061-7.685-3.215-10.748-0.343L4.013,249.784c-3.817,3.58-5.039,9.038-3.114,13.904s6.551,8.01,11.784,8.01h16.237    l30.593,220.348c0.865,6.231,6.261,10.93,12.552,10.93h255.109c6.291,0,11.687-4.699,12.552-10.93l6.63-47.757    C346.933,440.128,344.029,436.287,339.869,435.71z" />
	</g>
</g>
<g
   style="fill:#00ccff"
   id="g843">
	<g
   style="fill:#00ccff"
   id="g841">
		<path
   style="fill:#00ccff"
   id="path839"
   d="M507.954,253.994l-119.833-111.31c8.347-16.622,11.511-35.642,8.923-54.212c-2.916-20.923-13.062-40.38-28.567-54.783    c-18.722-17.39-43.079-26.088-68.592-24.47c-24.407,1.541-46.608,12.353-62.88,30.528c-6.531-0.887-13.262-0.822-19.999,0.287    c-31.619,5.203-54.455,31.832-56.136,62.585l-74.494,69.891c-3.062,2.873-3.216,7.686-0.343,10.748    c2.874,3.063,7.686,3.215,10.748,0.343l65.82-61.753c2.16,9.126,6.147,17.545,11.655,24.851c-1.419,3.32-2.207,6.971-2.207,10.804    c0,15.203,12.369,27.571,27.571,27.571c15.203,0,27.571-12.368,27.571-27.571c0-15.204-12.369-27.571-27.571-27.571    c-5.656,0-10.918,1.714-15.297,4.647c-3.839-5.922-6.481-12.641-7.667-19.849c-0.303-1.842-0.5-3.676-0.604-5.5l23.569-22.113    l13.989,13.124c-0.021,2.417,0.027,4.842,0.194,7.278c1.639,23.877,12.198,45.845,29.733,61.856    c15.509,14.161,35.582,22.663,56.52,23.936c4.219,0.256,8.438,0.204,12.628-0.117l67.468,63.299h-16.453    c-3.795,0-7.009,2.799-7.531,6.558l-17.206,123.92c-0.578,4.159,2.326,7.999,6.486,8.577c0.354,0.049,0.707,0.073,1.055,0.073    c3.735,0,6.994-2.754,7.522-6.559l16.293-117.362h16.237c5.233,0,9.858-3.144,11.783-8.01c1.926-4.866,0.704-10.323-3.112-13.904    l-63.9-59.952c7.617-2.197,14.948-5.358,21.766-9.437l23.616,21.937c3.132,2.909,7.48,4.038,11.636,3.024l8.59-2.103    l-0.378,11.574c-0.119,3.667,1.354,7.202,4.041,9.696l18.505,17.188c1.769,1.643,4.214,2.349,6.588,1.9l11.395-2.156    l-0.214,13.325c-0.035,2.155,0.848,4.225,2.428,5.693l33.988,31.569c2.351,2.184,5.444,3.387,8.628,3.387    c0.376,0,0.753-0.017,1.13-0.051l17.42-1.564c6.578-0.59,11.539-6.016,11.539-12.621v-17.914    C512.001,259.769,510.526,256.386,507.954,253.994z M202.989,151.873c-2.996-1.641-5.773-3.557-8.338-5.686    c1.522-0.671,3.2-1.05,4.968-1.05c6.818-0.001,12.365,5.546,12.365,12.364s-5.547,12.366-12.366,12.366    c-5.998,0-11.008-4.294-12.128-9.967c2.582,1.939,5.305,3.729,8.193,5.31c1.159,0.635,2.411,0.936,3.646,0.936    c2.688,0,5.293-1.428,6.676-3.952C208.022,158.511,206.672,153.891,202.989,151.873z M215.693,81.345l-7.404-6.948    c-4.863-4.562-12.479-4.56-17.34,0l-9.661,9.064c7.158-14.563,20.989-25.593,38.186-28.423c2.279-0.375,4.557-0.587,6.821-0.659    C221.338,62.766,217.759,71.851,215.693,81.345z M496.794,278.876l-13.988,1.256l-30.678-28.496l0.21-13.047    c0.061-3.826-1.582-7.432-4.508-9.896c-2.926-2.463-6.76-3.468-10.519-2.758l-10.677,2.021l-14.845-13.79l0.449-13.755    c0.131-3.996-1.575-7.733-4.679-10.253c-3.105-2.521-7.112-3.419-10.999-2.471l-10.508,2.572l-26.942-25.026    c-2.62-2.433-6.579-2.713-9.514-0.673c-29.685,20.627-69.084,17.988-95.812-6.417C225.21,132.049,220.906,87.644,243,56.578    c5.862,1.776,11.376,4.578,16.277,8.293c-2.757,4.394-4.142,9.507-3.947,14.805c0.257,6.974,3.214,13.43,8.327,18.177    c4.871,4.525,11.143,6.985,17.756,6.985c0.327,0,0.656-0.006,0.986-0.018c6.973-0.257,13.429-3.215,18.178-8.327    c9.803-10.555,9.193-27.116-1.361-36.92c-7.837-7.28-18.983-8.811-28.218-4.8c-5.184-4.34-10.969-7.851-17.148-10.437    c12.908-11.813,29.249-18.819,46.993-19.939c21.31-1.345,41.649,5.912,57.283,20.434c26.333,24.461,32.198,64.64,13.947,95.538    c-1.818,3.077-1.247,7.005,1.372,9.438l123.349,114.577V278.876z M284.711,70.452c-0.543-0.86-1.108-1.699-1.685-2.527    c2.114,0.309,4.16,1.227,5.84,2.788c4.41,4.098,4.665,11.019,0.568,15.43c-1.985,2.136-4.682,3.373-7.597,3.48    c-2.911,0.11-5.696-0.928-7.833-2.912c-2.137-1.985-3.372-4.682-3.479-7.597c-0.029-0.781,0.031-1.551,0.162-2.303    c0.4,0.577,0.79,1.163,1.167,1.761c2.242,3.55,6.939,4.611,10.488,2.369C285.893,78.699,286.954,74.003,284.711,70.452z" />
	</g>
</g>
<g
   id="g845">
</g>
<g
   id="g847">
</g>
<g
   id="g849">
</g>
<g
   id="g851">
</g>
<g
   id="g853">
</g>
<g
   id="g855">
</g>
<g
   id="g857">
</g>
<g
   id="g859">
</g>
<g
   id="g861">
</g>
<g
   id="g863">
</g>
<g
   id="g865">
</g>
<g
   id="g867">
</g>
<g
   id="g869">
</g>
<g
   id="g871">
</g>
<g
   id="g873">
</g>
</svg>
