<?xml version="1.0" encoding="UTF-8" standalone="no"?>
<svg
   xmlns:dc="http://purl.org/dc/elements/1.1/"
   xmlns:cc="http://creativecommons.org/ns#"
   xmlns:rdf="http://www.w3.org/1999/02/22-rdf-syntax-ns#"
   xmlns:svg="http://www.w3.org/2000/svg"
   xmlns="http://www.w3.org/2000/svg"
   xmlns:sodipodi="http://sodipodi.sourceforge.net/DTD/sodipodi-0.dtd"
   xmlns:inkscape="http://www.inkscape.org/namespaces/inkscape"
   sodipodi:docname="עידן הניקיון לוגו חדש.svg"
   inkscape:version="1.0 (4035a4f, 2020-05-01)"
   id="svg8"
   version="1.1"
   viewBox="0 0 210 297"
   height="1122.5197"
   width="793.70081">
  <defs
     id="defs2">
    <rect
       id="rect865"
       height="145.28867"
       width="210.5315"
       y="80.04583"
       x="17.544291" />
  </defs>
  <sodipodi:namedview
     inkscape:window-maximized="1"
     inkscape:window-y="25"
     inkscape:window-x="0"
     inkscape:window-height="912"
     inkscape:window-width="1680"
     units="px"
     showborder="false"
     inkscape:showpageshadow="false"
     showgrid="false"
     inkscape:document-rotation="0"
     inkscape:current-layer="layer1"
     inkscape:document-units="mm"
     inkscape:cy="734.90941"
     inkscape:cx="231.69388"
     inkscape:zoom="0.48258812"
     inkscape:pageshadow="2"
     inkscape:pageopacity="0.0"
     borderopacity="1.0"
     bordercolor="#666666"
     pagecolor="#ffffff"
     id="base" />
  <metadata
     id="metadata5">
    <rdf:RDF>
      <cc:Work
         rdf:about="">
        <dc:format>image/svg+xml</dc:format>
        <dc:type
           rdf:resource="http://purl.org/dc/dcmitype/StillImage" />
        <dc:title></dc:title>
      </cc:Work>
    </rdf:RDF>
  </metadata>
  <g
     id="layer1"
     inkscape:groupmode="layer"
     inkscape:label="Layer 1">
    <g
       id="g879">
      <path
         id="rect833"
         style="opacity:1;fill:#0058ff;stroke-width:10.5833;stroke-linecap:round;stroke-linejoin:round;paint-order:stroke fill markers;fill-opacity:1"
         transform="rotate(-45)"
         d="m -94.041794,155.16031 c 18.062982,-30.00019 98.0939333,-37.60482 98.0939333,-37.60482 0,0 -7.6046378,80.03095 -37.6048233,98.09393 -15.516833,9.34262 -40.939026,6.45388 -53.941006,-6.5481 -13.00198,-13.00198 -15.89072,-38.42417 -6.548104,-53.94101 z"
         sodipodi:nodetypes="acaza" />
      <path
         sodipodi:nodetypes="acaza"
         d="M 48.287241,170.98435 C 40.846883,141.02699 85.98958,86.404495 85.98958,86.404495 c 0,0 45.14269,54.622495 37.70233,84.579855 -3.84833,15.49468 -21.49429,29.53959 -37.70233,29.53959 -16.208043,0 -33.854,-14.04491 -37.702339,-29.53959 z"
         style="opacity:1;fill:#00b5ff;fill-opacity:1;stroke-width:10.5833;stroke-linecap:round;stroke-linejoin:round;paint-order:stroke fill markers"
         id="path836" />
      <path
         id="path838"
         style="opacity:1;fill:#4adbff;fill-opacity:1;stroke-width:10.5833;stroke-linecap:round;stroke-linejoin:round;paint-order:stroke fill markers"
         d="m 57.332116,152.67096 c -5.655399,-22.77052 28.657463,-64.288952 28.657463,-64.288952 0,0 34.312851,41.518432 28.657461,64.288952 -2.92511,11.77748 -16.337767,22.45298 -28.657461,22.45298 -12.319698,0 -25.73235,-10.6755 -28.657463,-22.45298 z"
         sodipodi:nodetypes="acaza" />
      <path
         sodipodi:nodetypes="acaza"
         d="m 67.471913,129.92377 c -3.654366,-14.71368 18.51767,-41.541758 18.51767,-41.541758 0,0 22.172027,26.828078 18.517657,41.541758 -1.89012,7.61029 -10.557009,14.50852 -18.517657,14.50852 -7.960654,0 -16.627543,-6.89823 -18.51767,-14.50852 z"
         style="opacity:1;fill:#7be5ff;fill-opacity:1;stroke-width:10.5833;stroke-linecap:round;stroke-linejoin:round;paint-order:stroke fill markers"
         id="path840" />
      <path
         id="path842"
         style="opacity:1;fill:#ffffff;fill-opacity:1;stroke-width:39.9999;stroke-linecap:round;stroke-linejoin:round;paint-order:stroke fill markers"
         d="M 184.9707 602.29102 C 183.74131 616.11226 184.36826 629.22847 187.35156 641.24023 C 201.19732 696.98781 264.68584 747.51953 323 747.51953 C 381.31416 747.51953 444.80075 696.98781 458.64648 641.24023 C 461.62979 629.22847 462.25869 616.11226 461.0293 602.29102 C 460.54564 607.08062 459.76435 611.73935 458.64648 616.24023 C 444.80075 671.98781 381.31416 722.51953 323 722.51953 C 264.68584 722.51953 201.19732 671.98781 187.35156 616.24023 C 186.2337 611.73935 185.45436 607.08062 184.9707 602.29102 z "
         transform="scale(0.26458333)" />
      <path
         id="path847"
         style="opacity:0.95498392;fill:#ffffff;fill-opacity:1;stroke-width:39.9999;stroke-linecap:round;stroke-linejoin:round;paint-order:stroke fill markers"
         d="M 425.9082 527.29688 C 425.70985 528.19585 425.50389 529.09192 425.2832 529.98047 C 411.82754 584.15733 357.37415 634.01747 300.39453 647.77539 C 308.55268 650.19662 316.8444 651.51953 325 651.51953 C 368.61804 651.51953 416.10646 613.72371 426.46289 572.02539 C 429.79101 558.62522 429.19142 543.38489 425.9082 527.29688 z "
         transform="scale(0.26458333)" />
      <g
         id="g861"
         transform="rotate(-15,64.07416,120.81323)">
        <ellipse
           ry="5.8208332"
           rx="4.1010413"
           cy="145.25624"
           cx="96.176041"
           id="path852"
           style="opacity:0.954984;fill:#ffffff;fill-opacity:1;stroke-width:10.5833;stroke-linecap:round;stroke-linejoin:round;paint-order:stroke fill markers" />
        <ellipse
           style="opacity:0.954984;fill:#ffffff;fill-opacity:1;stroke-width:10.5833;stroke-linecap:round;stroke-linejoin:round;paint-order:stroke fill markers"
           id="ellipse854"
           cx="96.176041"
           cy="130.175"
           rx="2.7961645"
           ry="3.96875" />
        <ellipse
           ry="2.3812499"
           rx="1.6776987"
           cy="117.73958"
           cx="96.176041"
           id="ellipse856"
           style="opacity:0.954984;fill:#ffffff;fill-opacity:1;stroke-width:10.5833;stroke-linecap:round;stroke-linejoin:round;paint-order:stroke fill markers" />
      </g>
    </g>
    <text
       transform="translate(-208.88672,-7.1273684)"
       style="font-size:68.79170000000000584px;line-height:1.05;font-family:sans-serif;text-align:end;white-space:pre;shape-inside:url(#rect865);fill:#2ad4ff"
       id="text863"
       xml:space="preserve"><tspan
         x="228.07617"
         y="135.92651"><tspan
           style="font-style:normal;font-variant:normal;font-weight:bold;font-stretch:normal;font-size:68.7917px;font-family:Assistant;-inkscape-font-specification:'Assistant Bold';fill:#2ad4ff">עידן</tspan><tspan
           dx="76.987602"
           style="font-style:normal;font-variant:normal;font-weight:bold;font-stretch:normal;font-size:68.7917px;font-family:Assistant;-inkscape-font-specification:'Assistant Bold';fill:#2ad4ff">
</tspan></tspan><tspan
         x="228.07618"
         y="208.62209"><tspan
           style="font-style:normal;font-variant:normal;font-weight:bold;font-stretch:normal;font-size:68.7917px;font-family:Assistant;-inkscape-font-specification:'Assistant Bold';fill:#2ad4ff">הניקיון</tspan></tspan></text>
  </g>
</svg>
