<svg height="512" viewBox="0 0 512 512" width="512" xmlns="http://www.w3.org/2000/svg"><g id="Outline"><path d="m424 368a8 8 0 0 0 -4.169-7.023l-65.213-35.571a18.836 18.836 0 0 1 -7.852-25.054l.357-.714a18.924 18.924 0 0 1 25.36-8.452l87.939 43.969 7.156-14.31-43.578-21.789v-83.056a8 8 0 0 0 -1.753-5l-32-40a8 8 0 0 0 -6.247-3h-52a12 12 0 0 1 0-24h69.282a23.972 23.972 0 0 1 18.222 8.381l37.196 43.391 15.542 62.168a8 8 0 0 0 1.361 2.86l24 32 12.8-9.6-23.031-30.708-15.611-62.432a8.01 8.01 0 0 0 -1.687-3.267l-38.422-44.824a39.949 39.949 0 0 0 -30.37-13.969h-69.282a28 28 0 0 0 -4 55.71v48.29h-24a8 8 0 0 0 -8 8v24.452a41.767 41.767 0 0 0 -22.951 11.138l-23.649 22.629a29.935 29.935 0 0 0 0 43.561 31.766 31.766 0 0 0 13.718 7.75 29.925 29.925 0 0 0 3 40.251 31.816 31.816 0 0 0 13.7 7.786 29.906 29.906 0 0 0 3.035 40.215 31.82 31.82 0 0 0 13.147 7.546v42.672a8 8 0 0 0 8 8h72v-16h-64v-24h72a8 8 0 0 0 8-8v-83.978l16 8.727v107.251h-16v16h24a8 8 0 0 0 8-8v-24h25.366a131.651 131.651 0 0 0 36.153 24.387l15.17 6.9 6.622-14.566-15.171-6.9a116.484 116.484 0 0 1 -68.14-105.821zm-16-136h-16v-33.194l16 20zm-64-48h32v48h-32zm64 64v43.056l-28.362-14.181a34.929 34.929 0 0 0 -36.3 3.125h-31.338v-32zm-147.54 82.219a14.081 14.081 0 0 1 0-20.439l23.645-22.626a25.732 25.732 0 0 1 11.895-6.431v35.964l-13.549 13.549c-5.951 5.947-16.015 5.701-21.991-.017zm16.724 48a14.121 14.121 0 0 1 .061-20.5l16.35-16a.6.6 0 0 1 .062-.061l2.343-2.345v40.854a15.06 15.06 0 0 1 -8.18 2.463 15.4 15.4 0 0 1 -10.636-4.408zm16.726 48a13.937 13.937 0 0 1 0-20.438c.066-.063.131-.127.194-.193l1.9-1.941v24.241a15.64 15.64 0 0 1 -2.094-1.669zm82.09 13.781h-64v-144h19.208a34.758 34.758 0 0 0 15.749 43.452l29.043 15.842zm48-9.085a132.964 132.964 0 0 0 11.024 17.085h-11.024z"/><path d="m254.739 265.994-15.5-3.988a23.982 23.982 0 0 1 -23.239 17.994h-109.43a24.054 24.054 0 0 1 -20.838-12.093l-52.652-92.141a8.219 8.219 0 0 1 -1.08-4.066 8.2 8.2 0 0 1 13.6-6.17l37.134 32.493a7.976 7.976 0 0 0 3.7 1.806v.018l.776.155a96.566 96.566 0 0 1 58.39 36.798l12.8-9.6a112.532 112.532 0 0 0 -62.4-41.6v-89.6h-16v78.37l-23.866-20.883a24.2 24.2 0 0 0 -40.134 18.213 24.247 24.247 0 0 0 3.188 12l52.653 92.142a40.086 40.086 0 0 0 34.729 20.158h109.43a39.979 39.979 0 0 0 38.739-30.006z"/><path d="m96 44a12 12 0 0 1 24 0v84h16v-84a12 12 0 0 1 24 0v84h16v-84a12 12 0 0 1 24 0v84h16v-84a12 12 0 0 1 24 0v92h16v-92a27.987 27.987 0 0 0 -48-19.577 27.956 27.956 0 0 0 -40 0 27.956 27.956 0 0 0 -40 0 27.987 27.987 0 0 0 -48 19.577v36h16z"/><path d="m256 192h32v16h-32z"/><path d="m200 192h32v16h-32z"/><path d="m261.758 149.979h16v32h-16z" transform="matrix(.271 -.963 .963 .271 36.929 380.709)"/><path d="m207.851 134.816h16v32h-16z" transform="matrix(.271 -.963 .963 .271 12.226 317.77)"/><path d="m253.759 227.175h32v16h-32z" transform="matrix(.963 -.271 .271 .963 -53.601 81.828)"/><path d="m199.851 242.338h32v16h-32z" transform="matrix(.963 -.271 .271 .963 -59.72 67.797)"/></g></svg>