<svg height="512" viewBox="0 0 512 512" width="512" xmlns="http://www.w3.org/2000/svg"><g id="Outline"><path d="m280 176v-96a24 24 0 0 0 -48 0v96a24 24 0 0 0 48 0zm-24-104a8.009 8.009 0 0 1 8 8v16h-16v-16a8.009 8.009 0 0 1 8-8zm-8 104v-64h16v64a8 8 0 0 1 -16 0z"/><path d="m184 248h16v16h-16z"/><path d="m184 64h16v16h-16z"/><path d="m184 96h16v64h-16z"/><path d="m421.029 448.572-24 9.6 5.942 14.856 22.57-9.028h70.459v-16h-72a8 8 0 0 0 -2.971.572z"/><path d="m417.541 352-10.089-4.035a110.993 110.993 0 0 0 -123.052 28.035h-4.4v-40a8 8 0 0 0 8-8v-24h64a8 8 0 0 0 8-8v-240a40.045 40.045 0 0 0 -40-40h-128a40.045 40.045 0 0 0 -40 40v16h16v-16a24.028 24.028 0 0 1 24-24h128a24.028 24.028 0 0 1 24 24v232h-48v-24a40 40 0 0 0 -80 0v24h-48v-200h-16v208a8 8 0 0 0 8 8h64v24a8 8 0 0 0 8 8v24h16v-24h16v40h-48a32.012 32.012 0 0 0 -30.933 40.208l-51.761-41.408a31.334 31.334 0 0 0 -40.747 47.566l68.859 63.121a39.9 39.9 0 0 0 27.029 10.513h155.553a8 8 0 0 0 2.971-.572l40-16-5.942-14.856-38.57 15.428h-154.012a23.938 23.938 0 0 1 -16.217-6.309l-68.859-63.12a15.334 15.334 0 0 1 19.94-23.278l63.689 50.954a8 8 0 0 0 5 1.753h112v-16h-88a16 16 0 0 1 0-32h72a8 8 0 0 0 6.074-2.793 95 95 0 0 1 107.436-26.387l11.519 4.608a8 8 0 0 0 2.971.572h80v-16zm-185.541-88a24 24 0 0 1 48 0v24h-48zm8 56v-16h32v16z"/></g></svg>