<?xml version="1.0"?>
<svg xmlns="http://www.w3.org/2000/svg" viewBox="0 0 512 512" width="512" height="512"><g id="Outline"><path d="M472.632,221.1a37.265,37.265,0,0,0-41.249,8.2L376,284.687V60a43.978,43.978,0,0,0-79.984-25.274,44.577,44.577,0,0,0-4.9-5.847,43.974,43.974,0,0,0-67.1,5.847,44.577,44.577,0,0,0-4.9-5.847,43.974,43.974,0,0,0-67.1,5.847,44.729,44.729,0,0,0-4.9-5.847A44.005,44.005,0,0,0,72,60v60H88V60a28,28,0,1,1,56,0v44h16V60a28,28,0,1,1,56,0v68h16V60a28,28,0,1,1,56,0V224h16V60a28,28,0,1,1,56,0V300.686l-29.657,29.657,11.314,11.314L442.7,240.617A21.855,21.855,0,0,1,480,256.07a22.576,22.576,0,0,1-2.876,10.841L389.977,419.416l13.892,7.938,87.149-152.508A37.953,37.953,0,0,0,496,256.07,37.264,37.264,0,0,0,472.632,221.1Z"/><path d="M304.29,480H176a88.1,88.1,0,0,1-88-88V376H72v16A104.118,104.118,0,0,0,176,496H304.29a104.222,104.222,0,0,0,90.3-52.4l-13.893-7.938A88.185,88.185,0,0,1,304.29,480Z"/><path d="M214,355.192l40.608,13.537a8,8,0,0,0,10.121-10.12L251.19,318a128.011,128.011,0,0,0-197.7-160.509c-1.666,1.665-3.312,3.4-4.894,5.169l11.914,10.679c1.387-1.547,2.831-3.072,4.293-4.533a112.008,112.008,0,0,1,171,143.384,8,8,0,0,0-1.039,7.123l9.726,29.177-29.177-9.725a8,8,0,0,0-7.123,1.038A112.026,112.026,0,0,1,50.175,186.8l-13.391-8.757A127.992,127.992,0,0,0,214,355.192Z"/><path d="M48,248v24a24,24,0,0,0,48,0V248a24,24,0,0,0-48,0Zm32,0v24a8,8,0,0,1-16,0V248a8,8,0,0,1,16,0Z"/><path d="M240,240V216a24,24,0,0,0-48,0v24a24,24,0,0,0,48,0Zm-16,0a8,8,0,0,1-16,0V216a8,8,0,0,1,16,0Z"/><path d="M75.207,326.651c2.5,3.5,6.677,9.351,15.079,9.351s12.583-5.853,15.081-9.35a20.206,20.206,0,0,1,2.061-2.607,20.266,20.266,0,0,1,2.058,2.606c2.5,3.5,6.678,9.351,15.08,9.351s12.583-5.853,15.081-9.35a20.255,20.255,0,0,1,2.062-2.608,20.168,20.168,0,0,1,2.062,2.608c2.5,3.5,6.679,9.35,15.083,9.35s12.584-5.853,15.083-9.35a15.535,15.535,0,0,1,2.214-2.723c-.047.029-.145.064-.151.072V308c-8.4,0-12.584,5.852-15.083,9.35a20.1,20.1,0,0,1-2.063,2.608,20.166,20.166,0,0,1-2.063-2.608c-2.5-3.5-6.679-9.35-15.082-9.35s-12.583,5.853-15.081,9.35a20.206,20.206,0,0,1-2.061,2.607,20.263,20.263,0,0,1-2.059-2.606c-2.5-3.5-6.678-9.351-15.079-9.351s-12.583,5.853-15.081,9.35a20.293,20.293,0,0,1-2.061,2.607,20.263,20.263,0,0,1-2.059-2.606c-2.5-3.5-6.679-9.351-15.082-9.351l.063,16a.694.694,0,0,1-.217-.076A15.525,15.525,0,0,1,75.207,326.651Z"/><path d="M92,176a20,20,0,1,0,20,20A20.023,20.023,0,0,0,92,176Zm0,24a4,4,0,1,1,4-4A4,4,0,0,1,92,200Z"/><path d="M184,300a20,20,0,1,0,20-20A20.023,20.023,0,0,0,184,300Zm24,0a4,4,0,1,1-4-4A4,4,0,0,1,208,300Z"/><path d="M168,152H144a24,24,0,1,0,0,48h24a24,24,0,0,0,0-48Zm0,32H144a8,8,0,0,1,0-16h24a8,8,0,0,1,0,16Z"/><path d="M129.894,278.106a28,28,0,1,0,36.212-36.212,28,28,0,1,0-36.212,36.212ZM140,240a11.981,11.981,0,0,1,11.784,9.8,8,8,0,0,0,6.414,6.413A11.993,11.993,0,1,1,144.216,270.2a8,8,0,0,0-6.414-6.413A11.993,11.993,0,0,1,140,240Z"/></g></svg>
