<svg height="512" viewBox="0 0 512 512" width="512" xmlns="http://www.w3.org/2000/svg"><g id="Outline"><path d="m256 496a240 240 0 0 1 -170.733-408.672l11.382 11.245a224 224 0 0 0 304.651 327.916l10.385 12.172a240.054 240.054 0 0 1 -155.685 57.339z"/><path d="m425.706 425.706-11.314-11.314a224 224 0 0 0 -305.148-327.626l-10.488-12.083a240 240 0 0 1 326.95 351.023z"/><path d="m256 456c-110.28 0-200-89.72-200-200s89.72-200 200-200 200 89.72 200 200-89.72 200-200 200zm0-384c-101.458 0-184 82.542-184 184s82.542 184 184 184 184-82.542 184-184-82.542-184-184-184z"/><path d="m214.521 411.4c-4.539 0-9.307-2.178-13.689-4.18-1.369-.626-2.663-1.217-3.864-1.709l6.064-14.806c1.5.613 3 1.3 4.449 1.961.929.425 2.127.972 3.29 1.465-.037-1.258-.111-2.57-.168-3.586-.405-7.211-.824-14.668 4.562-19.14s12.618-2.688 19.623-.97c.991.244 2.27.557 3.5.825-.271-1.222-.588-2.486-.834-3.466-1.756-7.009-3.572-14.256.872-19.668 4.424-5.389 11.862-5.023 19.051-4.667 1.021.05 2.337.115 3.6.143-.5-1.136-1.044-2.3-1.469-3.209-3.071-6.546-6.247-13.315-2.928-19.488 3.3-6.126 10.646-7.2 17.756-8.242 1.015-.149 2.326-.341 3.577-.56-.7-1.007-1.456-2.033-2.042-2.832-1.377-1.873-2.8-3.809-4-5.77l13.648-8.349c.845 1.381 2.009 2.965 3.243 4.642 4.29 5.836 9.152 12.45 6.243 19.414-2.935 7.029-11.126 8.228-18.352 9.286-1.3.191-3.1.453-4.615.75.6 1.457 1.384 3.137 1.955 4.354 3.082 6.569 6.575 14.015 2.363 20.3-4.234 6.312-12.484 5.9-19.767 5.545-1.321-.065-3.14-.155-4.693-.156.306 1.537.754 3.325 1.079 4.622 1.765 7.045 3.766 15.03-1.573 20.393s-13.362 3.41-20.43 1.677c-1.287-.316-3.059-.751-4.587-1.048.011 1.562.114 3.393.189 4.721.407 7.255.869 15.477-5.383 19.746a11.522 11.522 0 0 1 -6.67 2.002z"/><path d="m364.035 197.1a11.67 11.67 0 0 1 -2.357-.243c-6.845-1.4-9.986-8.169-13.024-14.71-.43-.926-.985-2.12-1.547-3.251-.784.976-1.572 2.013-2.184 2.818-4.341 5.711-8.83 11.615-15.747 11.616h-.149c-6.972-.086-11.334-6.119-15.552-11.954-.6-.827-1.371-1.9-2.139-2.9-.576 1.1-1.144 2.253-1.586 3.151-3.189 6.49-6.488 13.2-13.381 14.468-6.838 1.258-12.276-3.807-17.533-8.706-.751-.7-1.72-1.6-2.672-2.443-.349 1.178-.678 2.408-.934 3.366-.6 2.245-1.222 4.567-2 6.728l-15.049-5.433c.55-1.522 1.058-3.421 1.6-5.432 1.873-7 4-14.927 11.249-17.01 7.324-2.108 13.378 3.54 18.722 8.519.963.9 2.29 2.134 3.47 3.134.764-1.377 1.583-3.042 2.177-4.249 3.2-6.512 6.829-13.893 14.364-14.531 7.572-.636 12.413 6.055 16.685 11.962.774 1.072 1.842 2.548 2.811 3.761 1.009-1.2 2.124-2.667 2.934-3.731 4.394-5.781 9.38-12.335 16.9-11.521 7.54.816 11.015 8.3 14.08 14.9.558 1.2 1.327 2.858 2.05 4.236 1.211-.985 2.576-2.21 3.567-3.1 5.408-4.854 11.538-10.352 18.777-8.142s9.256 10.2 11.032 17.252c.367 1.46.715 2.84 1.082 4.085l-15.348 4.523c-.457-1.552-.86-3.152-1.25-4.7-.249-.99-.571-2.267-.912-3.482-.96.815-1.937 1.692-2.695 2.372-4.753 4.259-9.643 8.647-15.441 8.647z"/><path d="m216 224a32 32 0 1 1 32-32 32.036 32.036 0 0 1 -32 32zm0-48a16 16 0 1 0 16 16 16.019 16.019 0 0 0 -16-16z"/><path d="m329 392c-18.2 0-33-15.124-33-33.714 0-18.46 14.6-33.5 32.617-33.712a32.924 32.924 0 0 1 30.383-20.574c18.2 0 33 15.124 33 33.714 0 18.46-14.6 33.5-32.617 33.712a32.924 32.924 0 0 1 -30.383 20.574zm0-51.429c-9.374 0-17 7.947-17 17.715s7.626 17.714 17 17.714a17.171 17.171 0 0 0 16.707-14.554 8 8 0 0 1 9.655-6.439 16.475 16.475 0 0 0 3.638.422c9.374 0 17-7.947 17-17.715s-7.626-17.714-17-17.714a17.171 17.171 0 0 0 -16.707 14.554 8 8 0 0 1 -9.655 6.439 16.475 16.475 0 0 0 -3.638-.422z"/><path d="m272 280a32 32 0 1 1 32-32 32.036 32.036 0 0 1 -32 32zm0-48a16 16 0 1 0 16 16 16.019 16.019 0 0 0 -16-16z"/><path d="m176 256h16v16h-16z"/><path d="m216 272h16v16h-16z"/><path d="m280 392h16v16h-16z"/><path d="m312 280h16v16h-16z"/><path d="m336 120h16v16h-16z"/><path d="m276 144h-40a28 28 0 0 1 0-56h40a28 28 0 0 1 0 56zm-40-40a12 12 0 0 0 0 24h40a12 12 0 0 0 0-24z"/><path d="m394.912 296a28.9 28.9 0 0 1 -20.569-8.52l-29.823-29.823a29.088 29.088 0 1 1 41.137-41.137l29.823 29.823a29.089 29.089 0 0 1 -20.568 49.657zm-29.824-72a13.089 13.089 0 0 0 -9.255 22.343l29.824 29.824a13.089 13.089 0 0 0 18.51-18.51l-29.824-29.824a13 13 0 0 0 -9.255-3.833z"/><path d="m157.088 383.986a29.074 29.074 0 0 1 -20.568-49.643l8.912-8.911 11.313 11.313-8.912 8.912a13.089 13.089 0 0 0 18.51 18.51l29.824-29.824a13.089 13.089 0 0 0 -18.51-18.51l-9.578 9.579-11.314-11.312 9.578-9.578a29.088 29.088 0 1 1 41.137 41.137l-29.823 29.821a29 29 0 0 1 -20.569 8.506z"/><path d="m116 312a28.032 28.032 0 0 1 -28-28v-40a28.088 28.088 0 0 1 10.093-21.486 28.132 28.132 0 0 1 1.071-23.439l18.459-35.487a28.032 28.032 0 0 1 37.761-11.919 28 28 0 0 1 11.916 37.762l-18.459 35.486a27.83 27.83 0 0 1 -6.9 8.569 27.855 27.855 0 0 1 2.059 10.514v40a28.032 28.032 0 0 1 -28 28zm26.483-147.489a12.012 12.012 0 0 0 -10.666 6.461l-18.459 35.486a12.068 12.068 0 0 0 1.686 13.5 8 8 0 0 1 -3.2 12.81 12.041 12.041 0 0 0 -7.844 11.232v40a12 12 0 0 0 24 0v-40a11.973 11.973 0 0 0 -3.042-7.953 8 8 0 0 1 3.205-12.819 11.955 11.955 0 0 0 6.487-5.694l18.459-35.487a12 12 0 0 0 -5.109-16.183 11.922 11.922 0 0 0 -5.517-1.353z"/></g></svg>