<svg height="512" viewBox="0 0 512 512" width="512" xmlns="http://www.w3.org/2000/svg"><g id="Outline"><path d="m488 400h-16.022a39.788 39.788 0 0 0 8.022-24v-24h-16v24a24.027 24.027 0 0 1 -24 24h-304a24.027 24.027 0 0 1 -24-24v-80h352v39h16v-47a8 8 0 0 0 -8-8h-368a8 8 0 0 0 -8 8v88a39.788 39.788 0 0 0 8.022 24h-24.022v-256a8.009 8.009 0 0 1 8-8h80v24a8 8 0 0 0 8 8h48a8 8 0 0 0 8-8v-48a32.036 32.036 0 0 0 -32-32h-112v-24h48v-16h-112a8 8 0 0 0 -8 8v74h16v-26h168a16.019 16.019 0 0 1 16 16v8h-128a24.027 24.027 0 0 0 -24 24v224h-32v-230h-16v326a8 8 0 0 0 8 8h464a8 8 0 0 0 8-8v-56a8 8 0 0 0 -8-8zm-456-320v-24h40v24zm184 56v16h-32v-16zm-152 248v16h-32v-16zm416 72h-448v-40h448z"/><path d="m151.941 193.743h32v16h-32z" transform="matrix(.374 -.927 .927 .374 -81.979 282.019)"/><path d="m133.985 238.258h32v16h-32z" transform="matrix(.374 -.927 .927 .374 -134.5 293.229)"/><path d="m224.059 185.743h16v32h-16z" transform="matrix(.927 -.374 .374 .927 -58.621 101.46)"/><path d="m242.015 230.257h16v32h-16z" transform="matrix(.927 -.374 .374 .927 -73.97 111.409)"/><path d="m192 184h16v32h-16z"/><path d="m192 232h16v32h-16z"/><path d="m128 312h16v16h-16z"/><path d="m128 344h16v32h-16z"/></g></svg>