<?xml version="1.0"?>
<svg xmlns="http://www.w3.org/2000/svg" viewBox="0 0 512 512" width="512" height="512"><g id="Outline"><path d="M488,240H456a24.027,24.027,0,0,0-24-24H336a24.027,24.027,0,0,0-24,24H280V200h24v16h16V160a8,8,0,0,0-8-8H280V104a8,8,0,0,1,16,0v24a8,8,0,0,0,8,8h32a8,8,0,0,0,8-8V104a56.008,56.008,0,0,0-86.972-46.662l8.86,13.324A40.006,40.006,0,0,1,328,104v16H312V104a24,24,0,0,0-48,0v48H248V104a39.6,39.6,0,0,1,8.466-24.612L243.86,69.534A55.452,55.452,0,0,0,232,104v48H216V88a16.019,16.019,0,0,0-16-16H184a16.019,16.019,0,0,0-16,16v64H152a8,8,0,0,0-8,8v32a8,8,0,0,0,8,8h31.972a68.166,68.166,0,0,1-7.127,28.422A83.759,83.759,0,0,0,172.109,240H24a8,8,0,0,0-8,8c0,10.749.269,21.648.8,32.394l15.98-.788c-.385-7.827-.63-15.736-.728-23.606H328v80a24.027,24.027,0,0,0,24,24h80a24.027,24.027,0,0,0,24-24V256h23.949a644.314,644.314,0,0,1-4.76,70.422c-2.3,18.684-5.462,37.493-9.4,55.9l15.647,3.346c4.037-18.87,7.279-38.147,9.636-57.3A660.34,660.34,0,0,0,496,248,8,8,0,0,0,488,240ZM248,168h16v16H248Zm56,0v16H280V168ZM184,88h16v64H184Zm-24,80h72v16H160Zm31.155,67.578A84.226,84.226,0,0,0,199.972,200H232v40H189.163C189.781,238.505,190.432,237.024,191.155,235.578ZM248,240V200h16v40ZM432,344H352a8.009,8.009,0,0,1-8-8V248a8,8,0,0,0-8-8h-8a8.009,8.009,0,0,1,8-8h96a8.009,8.009,0,0,1,8,8v72H360v16h80v8A8.009,8.009,0,0,1,432,344Z"/><path d="M449.754,448H62.246L51.162,403.67A643.954,643.954,0,0,1,33.754,295.409L17.8,296.591A659.956,659.956,0,0,0,35.64,407.55l12.6,50.39A8,8,0,0,0,56,464H456a8,8,0,0,0,7.761-6.06l12.6-50.39-15.521-3.881Z"/><path d="M48.842,280.415c.279,5.384.634,10.837,1.054,16.208l15.951-1.246c-.409-5.233-.754-10.546-1.027-15.792Z"/><path d="M80.8,390.136a612.367,612.367,0,0,1-13.51-78.965l-15.914,1.658a628.324,628.324,0,0,0,13.864,81.035Z"/></g></svg>
