<?xml version="1.0"?>
<svg xmlns="http://www.w3.org/2000/svg" viewBox="0 0 512 512" width="512" height="512"><g id="Outline"><path d="M95.208,200A96.566,96.566,0,0,1,153.6,236.8l12.8-9.6A112.532,112.532,0,0,0,104,185.6V88.317c.645-.19,1.284-.392,1.94-.556a8,8,0,0,0,0-15.522A46.891,46.891,0,0,1,71.761,38.06a8,8,0,0,0-15.522,0A46.891,46.891,0,0,1,22.06,72.239a8,8,0,0,0,0,15.522A46.891,46.891,0,0,1,56.239,121.94a8,8,0,0,0,15.522,0A46.882,46.882,0,0,1,88,96.656v73.717L76.163,156.562a39.431,39.431,0,0,0-57.82-2.219,8,8,0,0,0-1.289,9.626l51.681,90.442A127.293,127.293,0,0,0,103.069,293.3l8.605,6.456L96.025,495.362l15.95,1.276,16-200A8,8,0,0,0,124.8,289.6l-12.132-9.1a111.389,111.389,0,0,1-30.043-34.028L34.358,162a23.472,23.472,0,0,1,29.658,4.974l25.91,30.23a7.97,7.97,0,0,0,4.51,2.618l0,.021ZM64,99.82A62.788,62.788,0,0,0,44.18,80,62.788,62.788,0,0,0,64,60.18,62.788,62.788,0,0,0,83.82,80,62.788,62.788,0,0,0,64,99.82Z"/><rect x="120" y="144" width="112" height="16"/><rect x="395.841" y="391.834" width="16" height="104.332" transform="translate(-34.112 33.61) rotate(-4.573)"/><path d="M269.749,259.417A111.609,111.609,0,0,1,264,224V44.48a28.151,28.151,0,0,0-26.989-28.465,27.855,27.855,0,0,0-20.458,7.839c-.191.184-.378.371-.563.559a27.956,27.956,0,0,0-39.99.01,27.956,27.956,0,0,0-39.99-.01c-.185-.188-.372-.375-.563-.559a27.782,27.782,0,0,0-20.465-7.839A28.15,28.15,0,0,0,88,44.48V48h16V44.48c0-6.649,5.185-12.246,11.551-12.475A12.005,12.005,0,0,1,128,44v76h16V44a12,12,0,0,1,24,0v76h16V44a12,12,0,0,1,24,0v76h16V44a12.007,12.007,0,0,1,12.442-12C242.815,32.234,248,37.831,248,44.48V224a111.929,111.929,0,0,1-20.1,64H152v16h72V496h16V298.621a127.6,127.6,0,0,0,16-30.106,127.539,127.539,0,0,0,16,30.106V496h16V296a8,8,0,0,0-1.6-4.8A111.658,111.658,0,0,1,269.749,259.417Z"/><path d="M408.929,293.3a127.3,127.3,0,0,0,34.337-38.892l51.68-90.44a8,8,0,0,0-1.289-9.626,39.43,39.43,0,0,0-57.821,2.221L424,170.373V44.48a28.151,28.151,0,0,0-26.989-28.465,27.8,27.8,0,0,0-20.458,7.839c-.191.184-.378.371-.563.559a27.956,27.956,0,0,0-39.99.01,27.956,27.956,0,0,0-39.99-.01c-.185-.188-.372-.375-.563-.559a27.838,27.838,0,0,0-20.458-7.839l.562,15.99A12.005,12.005,0,0,1,288,44v76h16V44a12,12,0,0,1,24,0v76h16V44a12,12,0,0,1,24,0v76h16V44a12.007,12.007,0,0,1,12.442-12C402.815,32.234,408,37.831,408,44.48V185.6a112.535,112.535,0,0,0-62.4,41.6l12.8,9.6A96.567,96.567,0,0,1,416.791,200l.777-.155,0-.021a7.964,7.964,0,0,0,4.51-2.618l25.909-30.228A23.471,23.471,0,0,1,477.642,162l-48.267,84.467A111.385,111.385,0,0,1,399.329,280.5l-10,7.5H312v16h72.614l3.905,48.8a7.995,7.995,0,0,0,1.541,14.957,46.891,46.891,0,0,1,34.179,34.179,8,8,0,0,0,15.522,0,46.891,46.891,0,0,1,34.179-34.179,8,8,0,0,0,0-15.522,46.891,46.891,0,0,1-34.179-34.179,8,8,0,0,0-15.522,0,46.875,46.875,0,0,1-20.2,28.13l-3.716-46.435ZM432,340.18A62.788,62.788,0,0,0,451.82,360,62.788,62.788,0,0,0,432,379.82,62.788,62.788,0,0,0,412.18,360,62.788,62.788,0,0,0,432,340.18Z"/><rect x="280" y="144" width="112" height="16"/></g></svg>
