<?xml version="1.0"?>
<svg xmlns="http://www.w3.org/2000/svg" viewBox="0 0 512 512" width="512" height="512"><g id="Outline"><rect x="240" y="40" width="32" height="16"/><path d="M384,448H279.791c-11.82,0-24.246-6.555-36.263-12.895-3.875-2.044-7.882-4.158-11.782-6C216,421.688,201.985,417.645,188.9,416.747l-1.094,15.963c11.065.759,23.207,4.315,37.12,10.873,3.574,1.684,7.248,3.622,11.138,5.674,13.1,6.91,27.946,14.743,43.728,14.743H384v16H278.237a65.243,65.243,0,0,1-36.3-10.991l-11-7.33a81.443,81.443,0,0,0-96.055,4.168L128,471.355V288.317c.645-.19,1.284-.392,1.94-.556a8,8,0,0,0,0-15.522A46.891,46.891,0,0,1,95.761,238.06a8,8,0,0,0-15.522,0A46.891,46.891,0,0,1,46.06,272.239a8,8,0,0,0,0,15.522A46.891,46.891,0,0,1,80.239,321.94a8,8,0,0,0,15.522,0A46.882,46.882,0,0,1,112,296.656s.015,191.624.018,191.7A8.515,8.515,0,0,0,120,496H392a8,8,0,0,0,8-8V416H384ZM88,299.82A62.788,62.788,0,0,0,68.18,280,62.788,62.788,0,0,0,88,260.18,62.788,62.788,0,0,0,107.82,280,62.788,62.788,0,0,0,88,299.82ZM142.806,480l2.074-1.659a65.445,65.445,0,0,1,77.185-3.35L229.578,480Z"/><path d="M418.343,213.657a8,8,0,0,0,10.925.364l64-56a8,8,0,0,0,1.887-9.6L448.348,54.809a16.091,16.091,0,0,0-7.156-7.157L381.268,17.69A16.073,16.073,0,0,0,374.111,16H137.889a16.078,16.078,0,0,0-7.156,1.689L70.809,47.652a16.091,16.091,0,0,0-7.157,7.156L52.845,76.422l14.31,7.156L77.963,61.963,137.889,32h47.459a72.569,72.569,0,0,0,141.3,0h47.459l59.926,29.963,30.8,61.607L416.18,164.547l10.306,12.239,45.715-38.5,5.88,11.76-53.716,47L400,172.686V162.073l38.993-70.188-13.986-7.77L400,129.127V88H384V392a8,8,0,0,0,6.06,7.761,46.891,46.891,0,0,1,34.179,34.179,8,8,0,0,0,15.522,0,46.891,46.891,0,0,1,34.179-34.179,8,8,0,0,0,0-15.522,46.891,46.891,0,0,1-34.179-34.179,8,8,0,0,0-15.522,0A46.864,46.864,0,0,1,400,380.5V195.313ZM256,72a56.514,56.514,0,0,1-54.072-40H310.066A56.893,56.893,0,0,1,256,72ZM432,372.18A62.788,62.788,0,0,0,451.82,392,62.788,62.788,0,0,0,432,411.82,62.788,62.788,0,0,0,412.18,392,62.788,62.788,0,0,0,432,372.18Z"/><path d="M93.657,213.657,112,195.313V248h16V88H112v41.127L86.993,84.115l-13.986,7.77L112,162.073v10.613l-4,4L61.657,130.343,50.343,141.657,96.686,188l-9.051,9.051-53.716-47L59.155,99.578l-14.31-7.156-28,56a8,8,0,0,0,1.887,9.6l64,56A8,8,0,0,0,93.657,213.657Z"/><path d="M259.074,104h-6.148a84.082,84.082,0,0,1-58.107-23.186L183.806,92.42A100.013,100.013,0,0,0,252.926,120h6.148a100.884,100.884,0,0,0,72.6-31.052L320.11,77.9A84.809,84.809,0,0,1,259.074,104Z"/><path d="M175.353,52.849l-14.706,6.3a100.55,100.55,0,0,0,9.566,17.362L183.4,67.445A84.606,84.606,0,0,1,175.353,52.849Z"/><path d="M156.061,439.128a58.691,58.691,0,0,1,20.783-6.237l-1.688-15.912a75.437,75.437,0,0,0-26.357,7.893Z"/><path d="M311.761,134.06a8,8,0,0,0-15.522,0,46.891,46.891,0,0,1-34.179,34.179,8,8,0,0,0,0,15.522,46.891,46.891,0,0,1,34.179,34.179,8,8,0,0,0,15.522,0,46.891,46.891,0,0,1,34.179-34.179,8,8,0,0,0,0-15.522A46.891,46.891,0,0,1,311.761,134.06ZM304,195.82A62.788,62.788,0,0,0,284.18,176,62.788,62.788,0,0,0,304,156.18,62.788,62.788,0,0,0,323.82,176,62.788,62.788,0,0,0,304,195.82Z"/></g></svg>
