<?xml version="1.0"?>
<svg xmlns="http://www.w3.org/2000/svg" viewBox="0 0 512 512" width="512" height="512"><g id="Outline"><path d="M200,32c80.14,0,149.474,56.985,164.86,135.5l15.7-3.077C363.707,78.419,287.771,16,200,16A183.237,183.237,0,0,0,73.541,66.345l11,11.62A167.3,167.3,0,0,1,200,32Z"/><rect x="216" y="480" width="88" height="16"/><path d="M488,184H464a8,8,0,0,0-8-8H392a55.823,55.823,0,0,0-40.162,17.032A152.109,152.109,0,0,0,238.633,52.958l-4.057,15.476A135.135,135.135,0,0,1,264.03,80H240a8,8,0,0,0-8,8v44.686L211.727,152.96a24.4,24.4,0,0,0-2.76-3.307L187.313,128l34.344-34.343A8,8,0,0,0,224,88V64a8,8,0,0,0-2.343-5.657l-16-16A8,8,0,0,0,200,40H176a8,8,0,0,0-5.657,2.343L159.11,53.576A152.056,152.056,0,0,0,48,200v24H32V200A168.144,168.144,0,0,1,71.244,92.079L58.988,81.794A184.166,184.166,0,0,0,16,200v32a8,8,0,0,0,8,8H48.938L64.8,366.9l15.877-1.984L64,231.5V208h96v16H80v16h80v20.687l-45.127,45.126A22.717,22.717,0,0,0,145.9,338.971l14.1-12.34V368h16V309a8,8,0,0,0-13.269-6.021l-27.368,23.949a6.716,6.716,0,0,1-9.175-9.8l47.469-47.47A8,8,0,0,0,176,264V208H288V384a8,8,0,1,1-16,0V320H256v64a8,8,0,1,1-16,0V320H224v64a8.014,8.014,0,0,1-11.117,7.375l-6.227,14.738A24.045,24.045,0,0,0,232,401.9a24.031,24.031,0,0,0,32,0A24.009,24.009,0,0,0,304,384V240h30.938L322.254,341.469l15.877,1.985L351.062,240H368v24a143.47,143.47,0,0,1-34.519,93.312l-11.555,13.481A8.008,8.008,0,0,0,320,376v96a24.027,24.027,0,0,0,24,24H448a24.027,24.027,0,0,0,24-24V432H456v40a8.009,8.009,0,0,1-8,8H344a8.009,8.009,0,0,1-8-8V378.959l9.63-11.234A159.5,159.5,0,0,0,383.8,272h24.4a159.5,159.5,0,0,0,38.169,95.725l.236.275H360v16h96v32h16V376a8.008,8.008,0,0,0-1.926-5.207l-11.555-13.481A143.47,143.47,0,0,1,424,264v-8a32.036,32.036,0,0,0,32,32,8,8,0,0,0,8-8V232h24a8,8,0,0,0,8-8V192A8,8,0,0,0,488,184ZM296.163,103.837A135,135,0,0,1,335.76,192H328V168a8,8,0,0,0-2.343-5.657L296,132.686V103.679C296.054,103.733,296.11,103.783,296.163,103.837ZM248,96h32v32H248ZM179.313,56h17.374L208,67.314V84.686l-16,16L163.314,72ZM128.3,84.39,87.033,125.653A23.856,23.856,0,0,0,80,142.63V192H64.239A136.17,136.17,0,0,1,128.3,84.39ZM96,192V142.63a7.956,7.956,0,0,1,2.348-5.663L152,83.314,180.686,112l-10.343,10.343a8,8,0,0,0,0,11.314l27.309,27.31A7.956,7.956,0,0,1,200,166.63V192Zm120,0V171.314L243.313,144h41.374l16,16H256v16h56v16Zm88,16h32v16H304Zm88-16h56v32H352.8A40.071,40.071,0,0,1,392,192Zm-8,64V240h24v16Zm64,13.853A16.01,16.01,0,0,1,440,256V240h8ZM480,216H464V200h16Z"/><rect x="192" y="320" width="16" height="48"/><path d="M192,384H24a8,8,0,0,0-8,8v96a8,8,0,0,0,8,8H192a8,8,0,0,0,8-8V392A8,8,0,0,0,192,384ZM32,400H184v16H32Zm152,80H32V432H184Z"/><rect x="48" y="448" width="16" height="16"/><rect x="80" y="440" width="16" height="16"/><rect x="152" y="448" width="16" height="16"/></g></svg>
