<?xml version="1.0"?>
<svg xmlns="http://www.w3.org/2000/svg" viewBox="0 0 512 512" width="512" height="512"><g id="Outline"><path d="M448,352V208a56.078,56.078,0,0,0-48-55.419V120.5l6.946-55.569A136.834,136.834,0,0,0,408,48a32,32,0,0,0-64,0,136.806,136.806,0,0,0,1.054,16.93L352,120.5V152H320V120.5l6.946-55.569A136.834,136.834,0,0,0,328,48a32,32,0,0,0-64,0,136.806,136.806,0,0,0,1.054,16.93L272,120.5V152H240V120.5l6.946-55.569A136.834,136.834,0,0,0,248,48a32,32,0,0,0-64,0,136.806,136.806,0,0,0,1.054,16.93L192,120.5V152H160V120.5l6.946-55.569A136.834,136.834,0,0,0,168,48a32,32,0,0,0-53.335-23.85l10.67,11.922A16,16,0,0,1,152,48a120.782,120.782,0,0,1-.931,14.946L144.938,112H127.062l-6.131-49.055A120.754,120.754,0,0,1,120,48a16.212,16.212,0,0,1,.287-3.041l-15.715-3.012A32.227,32.227,0,0,0,104,48a136.806,136.806,0,0,0,1.054,16.93L112,120.5v32.081A56.078,56.078,0,0,0,64,208v64H80V247.138a55.882,55.882,0,0,0,32,16.281V359.5l-3.2,25.64a55.932,55.932,0,0,0-28.39,15.26c-.139.139-.268.285-.405.425V288H64V440a56.063,56.063,0,0,0,56,56H392a56.063,56.063,0,0,0,56-56V368H432v32.828a55.792,55.792,0,0,0-28.8-15.687L400,359.5V263.43a55.52,55.52,0,0,0,31.6-15.83c.139-.139.268-.285.4-.425V352Zm-56.931,65.055A120.754,120.754,0,0,1,392,432a16,16,0,0,1-32,0,120.782,120.782,0,0,1,.931-14.946L367.062,368h17.876Zm-80,0A120.754,120.754,0,0,1,312,432a16,16,0,0,1-32,0,120.782,120.782,0,0,1,.931-14.946L287.062,368h17.876Zm-80,0A120.754,120.754,0,0,1,232,432a16,16,0,0,1-32,0,120.782,120.782,0,0,1,.931-14.946L207.062,368h17.876Zm-80,0A120.754,120.754,0,0,1,152,432a16,16,0,0,1-32,0,120.782,120.782,0,0,1,.931-14.946L127.062,368h17.876ZM128,264h16v88H128Zm32,95.5V264h32v95.5L188.938,384H163.062ZM208,128h16V248H208Zm16,136v88H208V264Zm16,95.5V264h32v95.5L268.938,384H243.062ZM288,128h16V248H288Zm16,136v88H288V264Zm16,95.5V264h32v95.5L348.938,384H323.062Zm64-7.5H368V264h16ZM368,248V128h16V248Zm8-216a16.019,16.019,0,0,1,16,16,120.782,120.782,0,0,1-.931,14.946L384.938,112H367.062l-6.131-49.055A120.754,120.754,0,0,1,360,48,16.019,16.019,0,0,1,376,32ZM352,168v80H320V168ZM296,32a16.019,16.019,0,0,1,16,16,120.782,120.782,0,0,1-.931,14.946L304.938,112H287.062l-6.131-49.055A120.754,120.754,0,0,1,280,48,16.019,16.019,0,0,1,296,32ZM272,168v80H240V168ZM216,32a16.019,16.019,0,0,1,16,16,120.782,120.782,0,0,1-.931,14.946L224.938,112H207.062l-6.131-49.055A120.754,120.754,0,0,1,200,48,16.019,16.019,0,0,1,216,32ZM192,168v80H160V168Zm-48-40V248H128V128ZM80,208a40.068,40.068,0,0,1,32-39.195V247.2A40.068,40.068,0,0,1,80,208ZM432,440a40.045,40.045,0,0,1-40,40H120a40,40,0,0,1-13.349-77.708l-1.6,12.777A136.834,136.834,0,0,0,104,432a32,32,0,0,0,64,0,136.806,136.806,0,0,0-1.054-16.93L165.062,400h21.876l-1.884,15.069A136.834,136.834,0,0,0,184,432a32,32,0,0,0,64,0,136.806,136.806,0,0,0-1.054-16.93L245.062,400h21.876l-1.884,15.069A136.834,136.834,0,0,0,264,432a32,32,0,0,0,64,0,136.806,136.806,0,0,0-1.054-16.93L325.062,400h21.876l-1.884,15.069A136.834,136.834,0,0,0,344,432a32,32,0,0,0,64,0,136.806,136.806,0,0,0-1.054-16.93l-1.594-12.755A40.271,40.271,0,0,1,432,440ZM420.28,236.286A39.663,39.663,0,0,1,400,247.2v-78.4a40,40,0,0,1,20.28,67.481Z"/></g></svg>
