<?xml version="1.0"?>
<svg xmlns="http://www.w3.org/2000/svg" viewBox="0 0 512 512" width="512" height="512"><g id="Outline"><path d="M377.271,480H134.729L118.96,389.328a1015.176,1015.176,0,0,1-14.146-132.762l-15.987.642A1031.224,1031.224,0,0,0,103.2,392.069l16.922,97.3A8,8,0,0,0,128,496H384a8,8,0,0,0,7.882-6.629l13.409-77.1-15.764-2.741Z"/><path d="M120.823,256.325c.216,5.333.481,10.76.787,16.13l15.974-.91c-.3-5.284-.562-10.623-.775-15.87Z"/><path d="M143.935,340.385c-2.239-17.513-4.028-35.334-5.319-52.969l-15.957,1.168c1.312,17.921,3.13,36.032,5.4,53.83Z"/><path d="M493.96,141.376l-11.881-10.717C469.233,144.9,448.61,155.9,424,161.647V144a31.923,31.923,0,0,0-10.868-24A31.923,31.923,0,0,0,424,96V48a32.036,32.036,0,0,0-32-32H120a31.794,31.794,0,0,0-22.627,9.372l11.313,11.315A15.9,15.9,0,0,1,120,32h66.234l10.53,31.59A23.97,23.97,0,0,0,219.532,80h72.936a23.97,23.97,0,0,0,22.768-16.411L325.766,32H392a16.019,16.019,0,0,1,16,16V96a16.019,16.019,0,0,1-16,16H120a16.019,16.019,0,0,1-16-16V48a16.136,16.136,0,0,1,.325-3.232L88.65,41.559A32.222,32.222,0,0,0,88,48V96a31.923,31.923,0,0,0,10.868,24A31.923,31.923,0,0,0,88,144s.1,88.155.284,96.181l16-.376c-.157-6.671-.233-13.407-.258-20.1A31.794,31.794,0,0,0,120,224h66.234l10.53,31.59A23.97,23.97,0,0,0,219.532,272h72.936a23.97,23.97,0,0,0,22.768-16.411L325.766,224H392a31.8,31.8,0,0,0,15.98-4.293,1014.5,1014.5,0,0,1-14.94,169.621l15.764,2.741A1030.52,1030.52,0,0,0,424,216v-38C452.687,172.033,477.631,159.48,493.96,141.376Zm-193.9-82.847A7.99,7.99,0,0,1,292.468,64H219.532a7.99,7.99,0,0,1-7.59-5.47L203.1,32H308.9ZM408,144v20.555q-7.908,1.047-16,1.371V128A16.019,16.019,0,0,1,408,144Zm-32-16v37.871q-8.107-.381-16.27-1.465a23.99,23.99,0,0,0-44.01-9.217c-6.435-1.322-13.027-2.558-19.72-3.685V128ZM104,192V144a16.019,16.019,0,0,1,16-16H280v21.053c-46.491-6.412-95.421-6.855-128,6.156V144H136v48h16V172.723c28.242-14.32,78.283-14.6,128-7.524V208H120A16.019,16.019,0,0,1,104,192Zm196.058,58.529a7.99,7.99,0,0,1-7.59,5.471H219.532a7.99,7.99,0,0,1-7.59-5.47L203.1,224H308.9ZM296,208V167.726q8.063,1.4,16,3.027V192h16V174.286c2.034.483,12.68,3.018,16,3.677V192h16V180.512c5.352.637,10.691,1.049,16,1.269V208Zm112-16a16.019,16.019,0,0,1-16,16V181.838q8.107-.3,16-1.235Z"/><path d="M312,408a48,48,0,0,0,0-96H200a48,48,0,0,0,0,96ZM168,360a32.036,32.036,0,0,1,32-32H312a32,32,0,0,1,0,64H200A32.036,32.036,0,0,1,168,360Z"/></g></svg>
