<?xml version="1.0"?>
<svg xmlns="http://www.w3.org/2000/svg" viewBox="0 0 512 512" width="512" height="512"><g id="Outline"><path d="M488,168a8,8,0,0,0,8-8V56a8,8,0,0,0-8-8H393.888L341.716,21.918A56.161,56.161,0,0,0,316.67,16H264a32.036,32.036,0,0,0-32,32v.156a225.39,225.39,0,0,0-26.9,2.563A32,32,0,1,0,207.9,66.476,210.088,210.088,0,0,1,240,64a207.966,207.966,0,0,1,80.1,16H316a28,28,0,0,0,0,56h39.266a65.49,65.49,0,0,0,56.511,32h8.389a207.6,207.6,0,0,1,27.676,96H371.259L320,224.422V192a16.019,16.019,0,0,0-16-16H279.814a48.012,48.012,0,0,0-75.636-35.011c-.153-.156-.306-.311-.461-.466A56,56,0,0,0,110.8,197.255,55.261,55.261,0,0,0,124.508,219.7c.159.159.319.319.48.476A48.068,48.068,0,0,0,139.973,289.5l8.054-13.826a32.008,32.008,0,0,1-6.54-50.3l.48-.48a8,8,0,0,0-1.018-12.174,39.982,39.982,0,0,1-5.11-60.888,40.183,40.183,0,0,1,47.49-6.817,43.281,43.281,0,0,1,11.189,9.107c.8.933,1.534,1.877,2.194,2.809a8,8,0,0,0,12.185,1.033l.48-.48A32,32,0,0,1,263.736,176H176a16.019,16.019,0,0,0-16,16V312.174a35.51,35.51,0,0,0-30.186,46.541q-1.522,1.017-2.958,2.178A39.991,39.991,0,0,0,160,431.187V432a16.019,16.019,0,0,0,16,16H304a16.019,16.019,0,0,0,16-16V408h40V392H240a16.019,16.019,0,0,1-16-16V312a16.019,16.019,0,0,1,16-16h67.729a8.065,8.065,0,0,0,6.418-12.777l-25.661-34.471a11.466,11.466,0,0,1,16.178-15.958l58.977,45.538A7.993,7.993,0,0,0,368.53,280H480V392H456v16h32a8,8,0,0,0,8-8V272a8,8,0,0,0-8-8H463.855a223.7,223.7,0,0,0-25.426-96ZM152,416a24,24,0,0,1-8.8-46.332,8,8,0,0,0,3.825-11.749A19.475,19.475,0,0,1,160,328.332v86.291A24.07,24.07,0,0,1,152,416ZM291.8,280H240a32.036,32.036,0,0,0-32,32v64a32.036,32.036,0,0,0,32,32h64v24H176V248h94.9C271.481,250.547,291.8,280,291.8,280Zm-13.568-57.547a27.489,27.489,0,0,0-6.19,9.547H176V192H304v23.185A27.514,27.514,0,0,0,278.233,222.453ZM176,80a16,16,0,1,1,16-16A16.019,16.019,0,0,1,176,80Zm235.777,72a49.617,49.617,0,0,1-44.622-27.578A8,8,0,0,0,360,120H316a12,12,0,0,1,0-24h76V80H355.409A223.368,223.368,0,0,0,248,48.144V48a16.019,16.019,0,0,1,16-16h52.67a40.063,40.063,0,0,1,17.883,4.226l53.87,26.93A8,8,0,0,0,392,64h88v88Z"/><path d="M240,480C125.309,480,32,386.691,32,272A207.907,207.907,0,0,1,137.517,90.964l-7.894-13.917A223.907,223.907,0,0,0,16,272,224.029,224.029,0,0,0,364.451,458.272l-8.9-13.3A206.955,206.955,0,0,1,240,480Z"/><path d="M374.554,252.091l15.831-2.32A152.223,152.223,0,0,0,324.45,145.6l-8.9,13.295A136.2,136.2,0,0,1,374.554,252.091Z"/><path d="M96.191,222.663a152.326,152.326,0,0,0,13.83,128.169l13.672-8.311a136.325,136.325,0,0,1-12.368-114.665Z"/><path d="M408,384a40,40,0,1,0,40,40A40.045,40.045,0,0,0,408,384Zm0,64a24,24,0,1,1,24-24A24.028,24.028,0,0,1,408,448Z"/><path d="M56,96A40,40,0,1,0,16,56,40.045,40.045,0,0,0,56,96Zm0-64A24,24,0,1,1,32,56,24.028,24.028,0,0,1,56,32Z"/></g></svg>
