<?xml version="1.0"?>
<svg xmlns="http://www.w3.org/2000/svg" viewBox="0 0 512 512" width="512" height="512"><g id="Outline"><path d="M376,400H344V384H328v24a8,8,0,0,0,1.344,4.438l6.825,10.237c12.282,18.424,9.819,44.025-5.825,59.668A8,8,0,0,0,328,488v8h16v-4.814a62.169,62.169,0,0,0,16-41.813v-.833A62.4,62.4,0,0,0,350.878,416H376v80h16V368H376Z"/><path d="M256,416c-21,0-34.478-11.408-42.087-20.979l-12.523,9.958C211.19,417.306,228.621,432,256,432c27.1,0,44.444-14.432,54.224-26.539l-12.448-10.053C290.188,404.8,276.78,416,256,416Z"/><path d="M381.254,74.74a63.991,63.991,0,0,0-36.976-18.194A107.924,107.924,0,0,0,186.559,44.814l10.882,11.728A92,92,0,0,1,352,124v13.013A31.94,31.94,0,0,0,344,136h-5.231a91.4,91.4,0,0,1-33.454-56.771l-1.423-8.544a8,8,0,0,0-15.173-2l-.278.608A141.409,141.409,0,0,1,168,151.772V124a91.194,91.194,0,0,1,18.39-55.195L173.6,59.2A107.078,107.078,0,0,0,152,124v16.319A31.984,31.984,0,0,0,168,200h.369a87.218,87.218,0,0,0,17.237,44.819A88.805,88.805,0,0,0,216,270.387V308a4,4,0,0,1-4,4H176a56.063,56.063,0,0,0-56,56V496h16V416h25.122c-2.787,0-7.031,16.284-7.567,18.641A64.026,64.026,0,0,0,168,491.186V496h16v-8a8,8,0,0,0-2.343-5.657c-15.4-15.4-17.836-41.651-5.826-59.668l6.825-10.237A8,8,0,0,0,184,408V384H168v16H136V368a40.045,40.045,0,0,1,40-40h9.955a139.377,139.377,0,0,0,24.363,45.078C224.579,390.439,240.8,400,256,400s31.421-9.561,45.682-26.922A139.377,139.377,0,0,0,326.045,328H336a40.07,40.07,0,0,1,37.726,26.666l15.086-5.332A56.1,56.1,0,0,0,336,312H300a4,4,0,0,1-4-4V270.387a88.794,88.794,0,0,0,30.4-25.575A87.2,87.2,0,0,0,343.631,200H344a31.975,31.975,0,0,0,24-53.132V124A107.346,107.346,0,0,0,357.2,76.94,47.948,47.948,0,0,1,384,120V263.345a47.632,47.632,0,0,1-33.147-22.612l-13.706,8.258A63.555,63.555,0,0,0,392,280a8,8,0,0,0,8-8V120A63.621,63.621,0,0,0,381.254,74.74ZM292.6,95.122a107.188,107.188,0,0,0,34.042,51.644L314.234,184H197.765l-6.4-19.195q4.566-.935,9.051-2.13a14,14,0,1,0,22.145-7.728A157.621,157.621,0,0,0,292.6,95.122Zm-135.91,84.2a15.948,15.948,0,0,1-3.977-16.024A8,8,0,0,0,160,168c2.679,0,5.344-.088,8-.224V184A15.921,15.921,0,0,1,156.693,179.32ZM300,328h9.157A123.668,123.668,0,0,1,297.2,352H272v16h12.785c-9.15,9.637-19.309,16-28.785,16s-19.635-6.363-28.785-16H240V352H214.8a123.668,123.668,0,0,1-11.956-24H212a20.023,20.023,0,0,0,20-20V276.693a88.741,88.741,0,0,0,48,0V308A20.023,20.023,0,0,0,300,328Zm-12.6-71.193a72.128,72.128,0,0,1-62.8,0A72.675,72.675,0,0,1,200,237.25V232h32V216H200V200H312v16H280v16h32v5.249A72.674,72.674,0,0,1,287.4,256.807ZM344,184V152a16,16,0,0,1,0,32Z"/><path d="M298,180a14,14,0,1,0-14-14A14.015,14.015,0,0,0,298,180Z"/><path d="M279.376,64.881l-2.752-15.762c-65.742,11.479-96.13,58.614-97.392,60.614l13.536,8.534C193.038,117.836,220.555,75.151,279.376,64.881Z"/></g></svg>
