<?xml version="1.0"?>
<svg xmlns="http://www.w3.org/2000/svg" viewBox="0 0 512 512" width="512" height="512"><g id="Outline"><path d="M168,224a32.036,32.036,0,0,0,32-32,47.489,47.489,0,0,0-8-26.422l-17.344-26.016a8,8,0,0,0-13.312,0L144,165.578A47.489,47.489,0,0,0,136,192,32.036,32.036,0,0,0,168,224Zm-10.688-49.547L168,158.422l10.688,16.031A31.539,31.539,0,0,1,184,192a16,16,0,0,1-32,0A31.539,31.539,0,0,1,157.312,174.453Z"/><path d="M357.029,448.572,278.459,480H121.122a15.99,15.99,0,0,1-10.628-4.039L56.536,428.019l-10.627,11.96,53.958,47.943A31.97,31.97,0,0,0,121.122,496H280c1.018,0,81.312-31.909,81.312-31.909l134.218,7.895.94-15.972S358.122,448.136,357.029,448.572Z"/><path d="M32,399.667a15.334,15.334,0,0,1,24.91-12.307l.116.092,66.09,50.887A8,8,0,0,0,128,440H240V424H152a16,16,0,0,1,0-32h72a8,8,0,0,0,5.724-2.411c12.8-13.11,30.164-22.449,50.2-27.006a129.6,129.6,0,0,1,58.106.447l11,4.4C349.974,367.806,496,368,496,368V352H426.738A115.829,115.829,0,0,1,376,256a8,8,0,0,0-4.17-7.023l-65.208-35.57a18.836,18.836,0,0,1-7.859-25.044l.365-.73a18.624,18.624,0,0,1,8.74-8.584,18.913,18.913,0,0,1,12.811-1.283c1.337.345,91.743,45.389,91.743,45.389l7.156-14.31L376,187.056V104a8,8,0,0,0-1.753-5l-32-40A8,8,0,0,0,336,56H284a12,12,0,0,1,0-24h69.28a23.985,23.985,0,0,1,18.226,8.376l37.191,43.4,15.542,62.168a7.992,7.992,0,0,0,1.207,2.648l56,80,13.108-9.176L439.4,140.625,423.761,78.06a7.987,7.987,0,0,0-1.687-3.266L383.652,29.962A39.962,39.962,0,0,0,353.28,16H284a27.991,27.991,0,0,0-25.293,40H181.744a37.868,37.868,0,0,0-9.22,1.136l3.9,15.518A21.87,21.87,0,0,1,181.744,72H264V88H184a8,8,0,0,0-8,8v8H160V93.744a21.761,21.761,0,0,1,7.389-16.332L156.818,65.4A37.77,37.77,0,0,0,144,93.744V112a8,8,0,0,0,8,8h32a8,8,0,0,0,8-8v-8h96v16H256a8,8,0,0,0-8,8v42.452a41.582,41.582,0,0,0-14.951,9.138L209.4,202.22a29.936,29.936,0,0,0,0,43.561,31.78,31.78,0,0,0,13.718,7.749,29.925,29.925,0,0,0,3,40.25,31.326,31.326,0,0,0,21.7,8.85c.06,0,.12,0,.18,0v54.4A110.517,110.517,0,0,0,220.712,376H152a32.013,32.013,0,0,0-30.81,40.66L66.846,374.816a31.334,31.334,0,0,0-40.685,47.616l.092.083,8.434,7.493,10.626-11.961L36.932,410.6A15.2,15.2,0,0,1,32,399.667ZM401.278,352H376V319.139A131.611,131.611,0,0,0,401.278,352ZM352,104a7.953,7.953,0,0,0,4.591-1.455L360,106.806V120H336V104ZM280,72h52.155L344,86.806V88H280Zm24,32h16v16H304Zm56,32v43.056l-16-8V168a8,8,0,0,0-8-8H264V136ZM220.46,234.22a13.938,13.938,0,0,1,0-20.44L244.1,191.158a25.362,25.362,0,0,1,3.9-3.033v40.561l-5.553,5.553a15.932,15.932,0,0,1-21.987-.019Zm27.36,52.41a15.4,15.4,0,0,1-10.636-4.408,13.956,13.956,0,0,1,.062-20.5L248,251.194v35.428C247.94,286.622,247.88,286.63,247.82,286.63ZM264,328h72a8,8,0,0,0,8-8V264H328v48H264V176h23.5a35.4,35.4,0,0,0-2.684,4.477l-.362.725a34.781,34.781,0,0,0,14.5,46.251L360,260.75V352h-6.46s-10.784-4.286-11.144-4.375a141.886,141.886,0,0,0-78.4,2.79Z"/></g></svg>
