<?xml version="1.0"?>
<svg xmlns="http://www.w3.org/2000/svg" viewBox="0 0 512 512" width="512" height="512"><g id="Outline"><path d="M386.865,396.175A144.5,144.5,0,0,1,256,480c-79.4,0-144-64.6-144-144V176a144.128,144.128,0,0,1,5.972-41.179l-15.334-4.568A160.122,160.122,0,0,0,96,176V336c0,88.225,71.776,160,160,160a160.549,160.549,0,0,0,145.4-93.132Z"/><path d="M140.167,90.434a145.339,145.339,0,0,1,49.954-42.517A142.41,142.41,0,0,1,256,32c79.4,0,144,64.6,144,144V336a143.808,143.808,0,0,1-7.446,45.837l15.169,5.09A159.793,159.793,0,0,0,416,336V176c0-88.225-71.776-160-160-160A159.779,159.779,0,0,0,127.306,80.916Z"/><path d="M211.21,73.348l-6.42-14.655a128.8,128.8,0,0,0-69.476,74.633l15.081,5.348A112.735,112.735,0,0,1,211.21,73.348Z"/><path d="M128,264v72a126.816,126.816,0,0,0,25.6,76.729l12.793-9.61A110.933,110.933,0,0,1,144,336V264Z"/><path d="M345.55,403.19l12.785,9.62A126.8,126.8,0,0,0,384,336V264H368v72A110.917,110.917,0,0,1,345.55,403.19Z"/><path d="M379.378,141.864a128.8,128.8,0,0,0-63.632-79.047l-7.492,14.139a112.723,112.723,0,0,1,55.7,69.18Z"/><path d="M308,128H287.978A39.788,39.788,0,0,0,296,104V88a40,40,0,0,0-80,0v16a39.788,39.788,0,0,0,8.022,24H204a76,76,0,0,0-4.477,151.87L192.457,400H192a24,24,0,0,0,0,48h48a8,8,0,0,0,8-8V408.249L255.516,288h.968L264,408.249V440a8,8,0,0,0,8,8h48a24,24,0,0,0,0-48h-.457l-7.066-120.13A76,76,0,0,0,308,128Zm-76-24V88a24,24,0,0,1,48,0v16a24,24,0,0,1-48,0ZM200,221.754l-2.657-.664a17.616,17.616,0,0,1,0-34.18l2.657-.664ZM232,432H192a8,8,0,0,1,0-16h40Zm96-8a8.009,8.009,0,0,1-8,8H280V416h40A8.009,8.009,0,0,1,328,424ZM312,263.852V238.246l6.537-1.635a33.614,33.614,0,0,0,0-65.222l-12.6-3.15A8,8,0,0,0,296,176v96h.01c0,.156-.006.312,0,.47l7.5,127.53h-24l-7.532-120.5A8,8,0,0,0,264,272H248a8,8,0,0,0-7.984,7.5L232.484,400h-24l7.5-127.53c.01-.158,0-.314,0-.47H216V176a8,8,0,0,0-9.94-7.761l-12.6,3.15a33.614,33.614,0,0,0,0,65.222L200,238.246v25.606A59.992,59.992,0,0,1,204,144H308a59.992,59.992,0,0,1,4,119.852Zm0-42.1V186.246l2.657.664a17.616,17.616,0,0,1,0,34.18Z"/><path d="M31.776,119.971a15.724,15.724,0,0,0,15.689-16.028l9.208-5.49A24.013,24.013,0,0,0,64,102.624v11.619a15.748,15.748,0,1,0,16,0V102.624a24.013,24.013,0,0,0,7.327-4.171l9.208,5.49a16.1,16.1,0,0,0,7.746,13.856,15.613,15.613,0,0,0,21.663-5.9,16.21,16.21,0,0,0-5.72-21.7,15.431,15.431,0,0,0-11.984-1.673,15.707,15.707,0,0,0-3.721,1.547l-8.988-5.359c-.055-.044.617-9.8,0-9.433l8.987-5.358a15.462,15.462,0,0,0,15.7-.126,16.21,16.21,0,0,0,5.72-21.7,15.666,15.666,0,0,0-9.679-7.568A15.428,15.428,0,0,0,104.282,42.2a16.1,16.1,0,0,0-7.747,13.856l-9.208,5.49A24.013,24.013,0,0,0,80,57.376V45.757a15.748,15.748,0,1,0-16,0V57.376a24.013,24.013,0,0,0-7.327,4.171l-9.208-5.49A16.1,16.1,0,0,0,39.719,42.2a15.428,15.428,0,0,0-11.983-1.673C14.4,44.1,12.017,62.787,23.776,69.8a15.626,15.626,0,0,0,15.705.126l8.987,5.358a24.005,24.005,0,0,0,0,9.434l-8.987,5.358a15.707,15.707,0,0,0-3.721-1.547A15.431,15.431,0,0,0,23.776,90.2a16.21,16.21,0,0,0-5.72,21.7,15.663,15.663,0,0,0,9.679,7.568A15.168,15.168,0,0,0,31.776,119.971ZM72,72a8,8,0,1,1-8,8A8.009,8.009,0,0,1,72,72Z"/><path d="M472,192a24.027,24.027,0,0,0-24,24v24a24,24,0,0,0,48,0V216A24.027,24.027,0,0,0,472,192Zm8,48a8,8,0,0,1-16,0V216a8,8,0,0,1,16,0Z"/><path d="M72,192a24,24,0,0,0-44.15-13.04l13.426,8.7A8,8,0,0,1,56,192v24a8,8,0,0,1-16,0V194H24v22a24,24,0,0,0,48,0Z"/><path d="M488,448c-8.4,0-12.584,5.853-15.083,9.35a20.183,20.183,0,0,1-2.063,2.608,20.183,20.183,0,0,1-2.063-2.608c-2.5-3.5-6.679-9.35-15.082-9.35s-12.583,5.853-15.081,9.35a20.223,20.223,0,0,1-2.061,2.607,20.263,20.263,0,0,1-2.059-2.606c-2.5-3.5-6.677-9.351-15.079-9.351s-12.584,5.854-15.082,9.351a20.191,20.191,0,0,1-2.06,2.606,20.191,20.191,0,0,1-2.06-2.606c-2.5-3.5-6.678-9.351-15.081-9.351l.063,16a.711.711,0,0,1-.217-.076,15.573,15.573,0,0,1,2.214,2.723c2.5,3.5,6.678,9.351,15.081,9.351s12.583-5.854,15.08-9.351a20.328,20.328,0,0,1,2.061-2.606,20.231,20.231,0,0,1,2.058,2.605c2.5,3.5,6.678,9.352,15.08,9.352s12.583-5.853,15.081-9.35a20.238,20.238,0,0,1,2.062-2.608,20.151,20.151,0,0,1,2.062,2.608c2.5,3.5,6.68,9.35,15.083,9.35s12.584-5.853,15.082-9.35a15.571,15.571,0,0,1,2.215-2.723c-.046.029-.145.064-.151.072Z"/><path d="M424,132a20,20,0,1,0,20-20A20.023,20.023,0,0,0,424,132Zm24,0a4,4,0,1,1-4-4A4,4,0,0,1,448,132Z"/><path d="M452,416a20,20,0,1,0-20-20A20.023,20.023,0,0,0,452,416Zm0-24a4,4,0,1,1-4,4A4,4,0,0,1,452,392Z"/><path d="M423.683,87.989a23.605,23.605,0,0,0,16.745-6.925l16.635-16.635a23.682,23.682,0,0,0,0-33.492h0a23.709,23.709,0,0,0-33.491,0L406.937,47.571a23.672,23.672,0,0,0,16.746,40.418Zm-5.433-29.1L434.885,42.25A7.682,7.682,0,1,1,445.75,53.114L429.115,69.75A7.682,7.682,0,1,1,418.25,58.886Z"/><path d="M478.106,313.894a28,28,0,1,0-36.212,36.212,28,28,0,1,0,36.212-36.212ZM468,352a11.983,11.983,0,0,1-11.785-9.8,8,8,0,0,0-6.413-6.414A11.993,11.993,0,1,1,463.785,321.8a8,8,0,0,0,6.413,6.414A11.993,11.993,0,0,1,468,352Z"/><path d="M62.65,297.375c3.5-2.5,9.35-6.679,9.35-15.082s-5.853-12.584-9.35-15.083A15.487,15.487,0,0,1,59.927,265c.029.047.064.146.072.151H44c0,8.4,5.853,12.584,9.35,15.083a20.18,20.18,0,0,1,2.608,2.064,20.255,20.255,0,0,1-2.608,2.062c-3.5,2.5-9.35,6.679-9.35,15.083s5.853,12.583,9.35,15.081a20.3,20.3,0,0,1,2.607,2.06,20.191,20.191,0,0,1-2.606,2.06c-3.5,2.5-9.351,6.677-9.351,15.079S49.853,346.3,53.35,348.8a20.383,20.383,0,0,1,2.607,2.06,20.1,20.1,0,0,1-2.606,2.06C49.854,355.417,44,359.6,44,368l16-.062a.688.688,0,0,1-.076.216,15.616,15.616,0,0,1,2.723-2.215c3.5-2.5,9.351-6.676,9.351-15.079s-5.853-12.583-9.35-15.081a20.3,20.3,0,0,1-2.607-2.06,20.176,20.176,0,0,1,2.606-2.059c3.5-2.5,9.351-6.678,9.351-15.08S66.147,304,62.65,301.5a20.328,20.328,0,0,1-2.608-2.061A20.149,20.149,0,0,1,62.65,297.375Z"/><path d="M68,392a27.989,27.989,0,0,0-26.106,17.894,28,28,0,1,0,36.212,36.212A28,28,0,0,0,68,392Zm2.2,39.784a8,8,0,0,0-6.413,6.414A11.993,11.993,0,1,1,49.8,424.216a8,8,0,0,0,6.413-6.414A11.993,11.993,0,1,1,70.2,431.784Z"/><path d="M116,456a20,20,0,1,0,20,20A20.023,20.023,0,0,0,116,456Zm0,24a4,4,0,1,1,4-4A4,4,0,0,1,116,480Z"/></g></svg>
