<?xml version="1.0"?>
<svg xmlns="http://www.w3.org/2000/svg" viewBox="0 0 512 512" width="512" height="512"><g id="Outline"><path d="M496,304V256a8,8,0,0,0-1.854-5.121l-80-96A8,8,0,0,0,408,152H360V139.314l77.657-77.657a8,8,0,0,0,0-11.314l-32-32a8,8,0,0,0-11.314,0L316.686,96H281.667v16h35.019L344,139.314V152H288v16h56v16H280v16h64v20l-26.667,20H274.667L260.8,229.6l-9.6,12.8,9.6,7.2L245,270.667l12.8,9.6L264,272v16a8,8,0,0,0,8,8h48a8,8,0,0,0,8-8V272l9.6,12.8a8,8,0,0,0,11.2,1.6l32-24a8,8,0,0,0,1.6-11.2L360,221.334V200h11.719L416,266.422V328H216a8,8,0,0,0-8,8v32a8,8,0,0,0,8,8H352v32a8,8,0,0,0,8,8h56v16H328V400a8,8,0,0,0-8-8H272a8,8,0,0,0-8,8v32H200a8,8,0,0,0-8,8v48a8,8,0,0,0,8,8H488a8,8,0,0,0,8-8V319.333H480v24.689a39.912,39.912,0,0,0-48,0V264a8,8,0,0,0-1.344-4.438l-48-72A8,8,0,0,0,376,184H360V168h44.253L480,258.9V304ZM224,360V344H352v16Zm144,40V344h48v56Zm64,8v-.022a39.912,39.912,0,0,0,48,0V432H432Zm-152,0h32v24H280Zm200,72H208V448H480ZM456,352a24,24,0,1,1-24,24A24.028,24.028,0,0,1,456,352ZM400,35.313,420.686,56,408,68.686,387.314,48Zm-24,24L396.686,80,352,124.686,331.314,104ZM312,280H280V256h32Zm33.6-11.2-14.4-19.2,19.2-14.4,14.4,19.2Z"/><rect x="448" y="368" width="16" height="16"/><rect x="384" y="368" width="16" height="16"/><path d="M238.9,314.759a8,8,0,0,0,7.524-10.714L224.57,243.454A128,128,0,1,0,48.6,58.665l11.922,10.67A112,112,0,1,1,210.326,234.249a8,8,0,0,0-2.782,9.156l12.765,35.4-30.2-27.771a8,8,0,0,0-8.127-1.637A112.029,112.029,0,0,1,51.37,81.021L38.147,72.012a128.052,128.052,0,0,0,144.62,194.005l50.715,46.63A7.982,7.982,0,0,0,238.9,314.759Z"/><path d="M48,144v24a24,24,0,0,0,48,0V144a24,24,0,0,0-48,0Zm32,0v24a8,8,0,0,1-16,0V144a8,8,0,0,1,16,0Z"/><path d="M240,136V112a24,24,0,1,0-48,0v24a24,24,0,0,0,48,0Zm-16,0a8,8,0,0,1-16,0V112a8,8,0,1,1,16,0Z"/><path d="M75.206,222.649c2.5,3.5,6.678,9.351,15.081,9.351s12.583-5.854,15.08-9.351a20.328,20.328,0,0,1,2.061-2.606,20.231,20.231,0,0,1,2.058,2.6c2.5,3.5,6.678,9.352,15.08,9.352s12.583-5.853,15.081-9.35a20.238,20.238,0,0,1,2.062-2.608,20.151,20.151,0,0,1,2.062,2.608c2.5,3.5,6.68,9.35,15.083,9.35s12.584-5.853,15.082-9.35a15.571,15.571,0,0,1,2.215-2.723c-.046.029-.145.064-.151.072V204c-8.4,0-12.584,5.853-15.083,9.35a20.183,20.183,0,0,1-2.063,2.608,20.183,20.183,0,0,1-2.063-2.608c-2.5-3.5-6.679-9.35-15.082-9.35s-12.583,5.853-15.081,9.35a20.223,20.223,0,0,1-2.061,2.607,20.263,20.263,0,0,1-2.059-2.606c-2.5-3.5-6.677-9.351-15.079-9.351s-12.584,5.854-15.082,9.351a20.191,20.191,0,0,1-2.06,2.606,20.191,20.191,0,0,1-2.06-2.606c-2.5-3.5-6.678-9.351-15.081-9.351l.063,16a.711.711,0,0,1-.217-.076A15.573,15.573,0,0,1,75.206,222.649Z"/><path d="M92,72a20,20,0,1,0,20,20A20.023,20.023,0,0,0,92,72Zm0,24a4,4,0,1,1,4-4A4,4,0,0,1,92,96Z"/><path d="M184,196a20,20,0,1,0,20-20A20.023,20.023,0,0,0,184,196Zm24,0a4,4,0,1,1-4-4A4,4,0,0,1,208,196Z"/><path d="M168,48H144a24,24,0,1,0,0,48h24a24,24,0,0,0,0-48Zm0,32H144a8,8,0,1,1,0-16h24a8,8,0,0,1,0,16Z"/><path d="M129.894,174.1a28,28,0,1,0,36.212-36.212A28,28,0,1,0,129.894,174.1ZM140,136a11.983,11.983,0,0,1,11.785,9.8,8,8,0,0,0,6.413,6.414A11.993,11.993,0,1,1,144.215,166.2a8,8,0,0,0-6.413-6.414A11.993,11.993,0,0,1,140,136Z"/></g></svg>
