<svg height="512" viewBox="0 0 512 512" width="512" xmlns="http://www.w3.org/2000/svg"><g id="Outline"><path d="m309.652 339.825-13.652 8.35c1.2 1.96 2.623 3.9 4 5.768.588.8 1.342 1.826 2.044 2.833-1.251.219-2.562.411-3.577.56-7.11 1.04-14.46 2.116-17.756 8.242-3.319 6.173-.144 12.943 2.928 19.489.424.907.971 2.073 1.468 3.208-1.262-.028-2.578-.092-3.6-.143-7.192-.356-14.629-.721-19.053 4.668-4.443 5.411-2.628 12.659-.872 19.667.246.981.562 2.245.834 3.466-1.234-.267-2.514-.581-3.505-.825-7-1.717-14.249-3.494-19.623.97s-4.967 11.929-4.562 19.141c.058 1.016.131 2.327.167 3.586-1.162-.493-2.36-1.04-3.288-1.465-1.452-.663-2.953-1.349-4.449-1.962l-6.056 14.807c1.2.492 2.495 1.083 3.864 1.709 4.382 2 9.149 4.179 13.688 4.179a11.514 11.514 0 0 0 6.674-2.007c6.252-4.268 5.791-12.49 5.383-19.745-.074-1.328-.177-3.159-.188-4.72 1.527.3 3.3.731 4.586 1.047 7.07 1.733 15.08 3.7 20.431-1.676s3.337-13.349 1.572-20.394c-.325-1.3-.773-3.085-1.079-4.622 1.554 0 3.374.091 4.695.156 7.283.363 15.532.767 19.765-5.545 4.213-6.28.72-13.726-2.362-20.3-.571-1.216-1.359-2.9-1.956-4.354 1.517-.3 3.312-.56 4.615-.75 7.227-1.058 15.418-2.257 18.353-9.286 2.909-6.964-1.954-13.578-6.244-19.415-1.236-1.673-2.397-3.257-3.245-4.637z"/><path d="m120 292a28 28 0 1 0 28-28 28.032 28.032 0 0 0 -28 28zm28-12a12 12 0 1 1 -12 12 12.013 12.013 0 0 1 12-12z"/><path d="m391 387.429a16.453 16.453 0 0 1 -3.637-.422 8 8 0 0 0 -9.656 6.438 17.171 17.171 0 0 1 -16.707 14.555c-9.374 0-17-7.946-17-17.714s7.626-17.715 17-17.715a16.453 16.453 0 0 1 3.637.422 8 8 0 0 0 9.656-6.439 17.171 17.171 0 0 1 16.707-14.554 16.97 16.97 0 0 1 15.719 10.951l14.871-5.9a32.737 32.737 0 0 0 -60.973-.476c-18.017.209-32.617 15.251-32.617 33.711 0 18.59 14.8 33.714 33 33.714a32.927 32.927 0 0 0 30.383-20.573 33.092 33.092 0 0 0 31.637-25.527l-15.543-3.8a17.125 17.125 0 0 1 -16.477 13.329z"/><path d="m304 256a32 32 0 1 0 32 32 32.036 32.036 0 0 0 -32-32zm0 48a16 16 0 1 1 16-16 16.019 16.019 0 0 1 -16 16z"/><path d="m104 112h16v16h-16z"/><path d="m176 80h16v16h-16z"/><path d="m352 304h16v16h-16z"/><path d="m424 200h16v16h-16z"/><path d="m344 88h16v16h-16z"/><path d="m276 104a28 28 0 0 0 0-56h-40a28 28 0 0 0 0 56zm-52-28a12.013 12.013 0 0 1 12-12h40a12 12 0 0 1 0 24h-40a12.013 12.013 0 0 1 -12-12z"/><path d="m232 381.089a29.088 29.088 0 0 0 -49.657-20.569l-29.823 29.823a29.088 29.088 0 1 0 41.137 41.137l29.823-29.823a28.9 28.9 0 0 0 8.52-20.568zm-19.834 9.254-29.823 29.823a13.088 13.088 0 0 1 -18.509-18.509l29.823-29.823a13.088 13.088 0 0 1 18.509 18.509z"/><path d="m83.156 163.588-4.536 8.72 14.193 7.384 4.538-8.72a12 12 0 1 1 21.291 11.076l-18.458 35.485a11.966 11.966 0 0 1 -6.488 5.7 8 8 0 0 0 -3.206 12.818 11.972 11.972 0 0 1 3.043 7.949v40a12 12 0 0 1 -24 0v-40a12.043 12.043 0 0 1 7.84-11.236 8 8 0 0 0 3.2-12.811 12.062 12.062 0 0 1 -1.685-13.5l8.212-15.771-14.2-7.382-8.2 15.775a28.137 28.137 0 0 0 -1.071 23.441 28.088 28.088 0 0 0 -10.096 21.484v40a28 28 0 0 0 56 0v-40a27.9 27.9 0 0 0 -2.058-10.515 27.884 27.884 0 0 0 6.9-8.568l18.459-35.486a28 28 0 0 0 -49.681-25.843z"/><path d="m425.705 86.3a240 240 0 0 0 -326.949-11.617l10.488 12.084a223.978 223.978 0 0 1 299.38 5.3l-51.624 51.624c-.311 0-.62 0-.94.024-7.536.638-11.164 8.018-14.366 14.531-.218.443-.472.957-.737 1.488l-2.147 2.146c-.98-.86-1.988-1.8-2.763-2.519-5.343-4.98-11.4-10.616-18.722-8.52-7.253 2.084-9.376 10.013-11.249 17.011-.538 2.01-1.047 3.91-1.6 5.431l15.048 5.434c.781-2.161 1.4-4.483 2-6.728.256-.958.586-2.188.934-3.366.953.84 1.922 1.743 2.673 2.443.773.721 1.551 1.443 2.336 2.15l-235.405 235.408a223.976 223.976 0 0 1 1.73-307.107l-11.584-11.037a240 240 0 0 0 343.5 335.225 240 240 0 0 0 0-339.41zm-11.313 328.1a223.975 223.975 0 0 1 -311.016 5.546l240.443-240.446c4.785-1.382 7.726-5.543 10.219-10.219l5.1-5.1c.224.308.44.606.633.874 4.219 5.835 8.582 11.868 15.552 11.952h.151c6.917 0 11.405-5.9 15.747-11.614.611-.8 1.4-1.842 2.183-2.818.563 1.13 1.117 2.324 1.547 3.25 3.038 6.541 6.179 13.306 13.025 14.711a11.72 11.72 0 0 0 2.356.241c5.8 0 10.689-4.386 15.434-8.645.757-.681 1.735-1.558 2.695-2.373.342 1.215.663 2.491.912 3.48.391 1.549.794 3.151 1.251 4.7l15.348-4.523c-.368-1.246-.715-2.626-1.083-4.087-1.776-7.049-3.788-15.037-11.032-17.25s-13.369 3.289-18.777 8.143c-.99.887-2.355 2.113-3.567 3.1-.723-1.378-1.492-3.033-2.05-4.235-3.065-6.6-6.539-14.082-14.078-14.9-7.523-.82-12.507 5.738-16.9 11.519-.809 1.065-1.924 2.532-2.933 3.732-.97-1.213-2.037-2.69-2.813-3.762-.7-.97-1.42-1.96-2.162-2.937l49.363-49.363a223.975 223.975 0 0 1 -5.546 311.016z"/><path d="m177.714 168c-18.59 0-33.714 14.8-33.714 33a32.926 32.926 0 0 0 20.573 30.383c.211 18.017 15.253 32.617 33.713 32.617 18.59 0 33.714-14.8 33.714-33a32.927 32.927 0 0 0 -20.573-30.383c-.211-18.017-15.253-32.617-33.713-32.617zm38.286 63c0 9.374-7.946 17-17.714 17s-17.715-7.626-17.715-17a16.453 16.453 0 0 1 .422-3.637 8 8 0 0 0 -6.439-9.656 17.171 17.171 0 0 1 -14.554-16.707c0-9.374 7.946-17 17.714-17s17.715 7.626 17.715 17a16.453 16.453 0 0 1 -.422 3.637 8 8 0 0 0 6.438 9.656 17.171 17.171 0 0 1 14.555 16.707z"/><path d="m216.52 161.657 29.823 29.823a29.088 29.088 0 1 0 41.137-41.137l-29.823-29.823a29.088 29.088 0 1 0 -41.137 41.137zm11.314-29.823a13.1 13.1 0 0 1 18.509 0l29.823 29.823a13.088 13.088 0 0 1 -18.509 18.509l-29.823-29.823a13.1 13.1 0 0 1 0-18.509z"/><path d="m240 312h16v16h-16z"/><path d="m96 344h16v16h-16z"/><path d="m136 128a24 24 0 1 0 24-24 24.028 24.028 0 0 0 -24 24zm32 0a8 8 0 1 1 -8-8 8.009 8.009 0 0 1 8 8z"/><path d="m458.938 285.149-21.212-33.913a28.134 28.134 0 0 0 -19.655-12.816 28.092 28.092 0 0 0 -13.392-19.6l-34.468-20.3a28 28 0 0 0 -28.411 48.258l34.469 20.3a27.872 27.872 0 0 0 10.1 3.562 27.863 27.863 0 0 0 3.881 10.3l21.212 33.913a27.81 27.81 0 0 0 17.452 12.436 28.187 28.187 0 0 0 6.339.726 28.017 28.017 0 0 0 23.686-42.859zm-17.376 25.022a12 12 0 0 1 -16.537-3.81l-21.212-33.913a11.958 11.958 0 0 1 -1.615-8.478 8 8 0 0 0 -7.873-9.418 8.114 8.114 0 0 0 -1.546.15 11.975 11.975 0 0 1 -8.4-1.414l-34.468-20.3a12 12 0 0 1 12.178-20.68l34.468 20.3a12.043 12.043 0 0 1 5.7 12.458 8 8 0 0 0 9.413 9.261 12.06 12.06 0 0 1 12.484 5.4l21.212 33.913a12 12 0 0 1 -3.811 16.537z"/></g></svg>