<svg height="512" viewBox="0 0 512 512" width="512" xmlns="http://www.w3.org/2000/svg"><g id="Outline"><path d="m112 360a40 40 0 1 0 40 40 40.045 40.045 0 0 0 -40-40zm0 64a24 24 0 1 1 24-24 24.028 24.028 0 0 1 -24 24z"/><path d="m488 192h-136a108.081 108.081 0 0 1 -91.611-50.289l-43.28-68.011a124 124 0 0 0 -105.109-57.7 96.108 96.108 0 0 0 -96 96v24h16v-24a80.091 80.091 0 0 1 80-80 108.081 108.081 0 0 1 91.611 50.289l43.28 68.012a124 124 0 0 0 105.109 57.699h128v200h16v-208a8 8 0 0 0 -8-8z"/><path d="m480 480h-128a108.081 108.081 0 0 1 -91.611-50.289l-43.28-68.011a123.968 123.968 0 0 0 -102.3-57.655c-.933-.027-1.869-.044-2.808-.044a95.986 95.986 0 0 0 -80 43v-195.001h-16.001v248a96 96 0 0 0 192 0v-22.814l38.891 61.114a124 124 0 0 0 105.109 57.7h136a8 8 0 0 0 8-8v-64h-16zm-368 0a80 80 0 1 1 80-80 80.091 80.091 0 0 1 -80 80z"/><path d="m320 304h16v24h-16z"/><path d="m320 264h16v24h-16z"/><path d="m320 224h16v24h-16z"/><path d="m320 344h16v24h-16z"/><path d="m320 384h16v24h-16z"/><path d="m320 424h16v24h-16z"/><path d="m176 160h16v24h-16z"/><path d="m176 120h16v24h-16z"/><path d="m176 80h16v24h-16z"/><path d="m176 200h16v24h-16z"/><path d="m176 240h16v24h-16z"/><path d="m176 280h16v24h-16z"/></g></svg>