<svg height="512" viewBox="0 0 512 512" width="512" xmlns="http://www.w3.org/2000/svg"><g id="Outline"><path d="m462.544 182.142-280.4 280.4a59.6 59.6 0 0 1 -84.284 0l-48.4-48.4a59.6 59.6 0 0 1 -6-77.277l-12.924-9.431a75.6 75.6 0 0 0 7.609 98.022l48.4 48.4a75.6 75.6 0 0 0 106.912 0l44.743-44.745a24.142 24.142 0 0 1 26.631-4.875l31.833 14.149a40.24 40.24 0 0 0 44.53-8.268l88.919-88.92a40.239 40.239 0 0 0 8.269-44.529l-14.149-31.834a24.143 24.143 0 0 1 4.961-26.717l44.661-44.661a75.695 75.695 0 0 0 10.619-13.338l-13.561-8.49a59.677 59.677 0 0 1 -8.369 10.514zm-52.929 89.19 14.149 31.834a24.143 24.143 0 0 1 -4.961 26.717l-88.919 88.917a24.145 24.145 0 0 1 -26.718 4.961l-31.833-14.149a39.536 39.536 0 0 0 -10.609-3.025l145.866-145.863a39.482 39.482 0 0 0 3.025 10.608z"/><path d="m473.858 86.544-48.4-48.4a75.6 75.6 0 0 0 -106.912 0l-44.746 44.745a24.141 24.141 0 0 1 -26.631 4.875l-31.836-14.149a40.24 40.24 0 0 0 -44.53 8.268l-88.919 88.917a40.239 40.239 0 0 0 -8.269 44.529l14.149 31.834a24.143 24.143 0 0 1 -4.964 26.72l-40.46 40.46 11.314 11.314 276.2-276.2a59.6 59.6 0 0 1 84.284 0l48.4 48.4a59.6 59.6 0 0 1 14.228 61.489l15.133 5.195a75.6 75.6 0 0 0 -18.047-78zm-371.473 154.124-14.149-31.834a24.143 24.143 0 0 1 4.964-26.717l88.916-88.917a24.119 24.119 0 0 1 17.035-7.005 23.817 23.817 0 0 1 9.683 2.044l31.833 14.149a39.536 39.536 0 0 0 10.609 3.025l-145.866 145.863a39.482 39.482 0 0 0 -3.025-10.608z"/><path d="m109.172 451.23a43.6 43.6 0 0 0 61.656 0l280.4-280.4a43.6 43.6 0 0 0 0-61.656l-48.4-48.4a43.6 43.6 0 0 0 -61.656 0l-280.4 280.4a43.6 43.6 0 0 0 0 61.656zm-37.089-98.744 280.4-280.4a27.6 27.6 0 0 1 39.03 0l48.4 48.4a27.6 27.6 0 0 1 0 39.028l-280.4 280.4a27.6 27.6 0 0 1 -39.03 0l-48.4-48.4a27.6 27.6 0 0 1 0-39.028z"/><path d="m192 356.284a36.047 36.047 0 0 0 25.657-10.627l128-128a36.284 36.284 0 0 0 -51.314-51.314l-14.5 14.5 11.314 11.314 14.5-14.5a20.284 20.284 0 0 1 28.686 28.686l-128 128a20.284 20.284 0 0 1 -28.686-28.686l103.75-103.75-11.314-11.314-103.75 103.75a36.284 36.284 0 0 0 25.657 61.941z"/></g></svg>