<svg height="512" viewBox="0 0 512 512" width="512" xmlns="http://www.w3.org/2000/svg"><g id="Outline"><path d="m392.942 151.341a601.618 601.618 0 0 0 -25.306-129.728 8 8 0 0 0 -7.636-5.613h-208a8 8 0 0 0 -7.636 5.613 602.658 602.658 0 0 0 -16.364 64.865l15.7 3.044q1.7-8.767 3.69-17.522h56.326l13.625 20.438a8 8 0 0 0 6.659 3.562h64a8 8 0 0 0 6.656-3.562l13.625-20.438h56.319a586.141 586.141 0 0 1 11.607 72h-240.415c1.264-12.939 2.961-25.917 5.076-38.693l-15.785-2.614c-2.658 16.057-4.685 32.424-6.025 48.644-1.359 16.351-2.048 33.023-2.048 49.554a603.18 603.18 0 0 0 6.04 85l29.031 203.241a8 8 0 0 0 7.919 6.868h192a8 8 0 0 0 7.919-6.869l10.285-72-15.839-2.262-9.303 65.131h-178.124l-8.678-60.756a379.837 379.837 0 0 0 106.4-36.689c42.923-22.58 78.839-52.683 107.136-89.724l-15.146 106.038 15.839 2.262 16.461-115.242c1.139-8 2.132-16.118 2.949-24.14a603.081 603.081 0 0 0 1.043-110.408zm-109.223-71.341h-55.438l-5.333-8h66.1zm-132.475-24q3.088-12.084 6.669-24h196.175q3.594 11.922 6.67 24zm105.966 312.4a363.569 363.569 0 0 1 -101.215 35l-17.106-119.771a587.184 587.184 0 0 1 -5.879-82.738c0-13.624.486-27.344 1.436-40.891h243.107a587.313 587.313 0 0 1 -1.4 98.308c-28.902 46.73-68.906 83.766-118.943 110.092z"/><path d="m155.774 280.155h16v15.925h-16z" transform="matrix(.99 -.141 .141 .99 -39.084 26.045)"/><path d="m163.756 311.675h16v64.65h-16z" transform="matrix(.99 -.141 .141 .99 -46.914 27.741)"/><path d="m259.406 201.482c-11.78-19.5-41.781-23.316-68.3-8.68-15.2 8.386-26.047 21.167-29.768 35.064-2.58 9.638-1.453 18.854 3.257 26.652 6.96 11.524 20.279 17.57 35.486 17.569a68.605 68.605 0 0 0 32.819-8.887c15.2-8.386 26.046-21.167 29.767-35.063 2.58-9.638 1.454-18.855-3.257-26.654zm-12.199 22.518c-2.563 9.572-10.8 18.99-22.042 25.193-18.335 10.118-39.8 8.77-46.875-2.945-3.041-5.033-2.493-10.522-1.5-14.242 2.562-9.572 10.8-18.99 22.042-25.193a52.948 52.948 0 0 1 25.108-6.793c9.66 0 17.883 3.306 21.767 9.737 3.044 5.031 2.493 10.521 1.5 14.243z"/><path d="m280 208h64v16h-64z"/><path d="m272 240h72v16h-72z"/><path d="m216 432h80v16h-80z"/></g></svg>