<svg height="512" viewBox="0 0 512 512" width="512" xmlns="http://www.w3.org/2000/svg"><g id="Outline"><path d="m480 429h16v67h-16z"/><path d="m476.8 339.453v-47.253a658.738 658.738 0 0 0 -14.587-137.723c-8.937-41.72-48.433-73.467-90.873-73.467-.14 0-.278 0-.416.011a92.432 92.432 0 0 0 -64.382 26.312c-1.581 1.538-4.551 4.756-4.551 4.756l-21.537-13.24-8.336 13.657 20.268 12.371a92.19 92.19 0 0 0 -13.5 39.806c-11.893 3.448-21.606 13.333-24.289 25.519-5.2 23.635 12.126 33.678 23.616 38.5.245 4.078.619 8.15 1.141 12.183a66.147 66.147 0 0 0 23.046 42.187v36.338a11.212 11.212 0 0 1 -11.2 11.2h-52.8a46.15 46.15 0 0 0 -41.6 25.841l14.34 7.1a30.245 30.245 0 0 1 27.26-16.941h52.8a27.231 27.231 0 0 0 27.2-27.2v-26.392a66.531 66.531 0 0 0 8.573 3.085 69.179 69.179 0 0 0 42.627-2.2v25.507a27.231 27.231 0 0 0 27.2 27.2h52.8a30.435 30.435 0 0 1 30.4 30.4v35.99h16v-35.99a46.36 46.36 0 0 0 -19.2-37.557zm-206.577-145.812a18.83 18.83 0 0 1 11.716-13.106 176.807 176.807 0 0 0 -3.884 30.2c-7.555-4.503-9.518-9.426-7.832-17.094zm61.114 87.069a50.166 50.166 0 0 1 -36.115-41.884 160.936 160.936 0 0 1 4.766-64.612l3.625-12.783a20.79 20.79 0 0 1 25.678-14.343l73.9 20.94a20.644 20.644 0 0 1 12.484 9.866c5.123 9.177.841 19.363-1.777 28.6a160.287 160.287 0 0 1 -29.828 57.506c-12.111 14.956-34.198 21.968-52.733 16.71zm96.415-64.744a18.99 18.99 0 0 1 3.11 18.239c-2.719 7.007-6.875 10.063-14.761 9.974a176.337 176.337 0 0 0 11.651-28.213zm17.566 114.644c1.354-26.774.661-58.01.63-59.379l-16 .368c.008.333.725 32.612-.654 59.011h-14.657c1.7-18.077 1.382-42.008 1.364-43.212l-16 .232c0 .294.343 25.792-1.437 42.98h-1.764a11.212 11.212 0 0 1 -11.2-11.2v-34.662a66.6 66.6 0 0 0 10.9-10.674 178.771 178.771 0 0 0 10.688-14.656 55.728 55.728 0 0 0 9.1.811c10.6 0 23.077-3.716 29.489-20.236a34.616 34.616 0 0 0 -13.137-40.964l.272-.962a36.785 36.785 0 0 0 -25.364-45.433l-13.95-3.953c6.318-4.136 14.026-8.513 19.833-9.879l-3.664-15.574c-14.795 3.48-33.537 18.021-35.876 19.869l-22.818-6.466a58.886 58.886 0 0 1 18.974-10l-4.9-15.233c-16.808 5.4-26.919 14.579-31.86 20.2a36.706 36.706 0 0 0 -28.671 4.018 77.014 77.014 0 0 1 66.72-38.6q.19 0 .378-.009c34.774-1.63 67.793 27.839 74.849 60.815a642.7 642.7 0 0 1 14.237 134.378v39.785a46.327 46.327 0 0 0 -11.2-1.375z"/><path d="m419.484 359.523-53.051 8.842a23.868 23.868 0 0 0 -21.344 6.618l-8.8 8.8a17.851 17.851 0 0 0 -11.372-7.47l1.2-7.191-57.6-9.6-2.631 15.784 42.1 7.016a17.6 17.6 0 0 0 -2.486 3.816l-15.86 33.222-25.64 18.959v-22.319h-16v27.954a49.113 49.113 0 0 0 -12.759 15.63l-27.241 20.143v-102.717c0-.73.026-1.47.078-2.2l-15.961-1.127c-.078 1.1-.117 2.224-.117 3.328v111.731a11.454 11.454 0 0 0 18.265 9.21l90.49-66.911a8.009 8.009 0 0 0 2.465-2.987l16.72-35.023a1.815 1.815 0 0 1 2.449-.838 1.9 1.9 0 0 1 1 1.714v5.81c0 6.891 8.581 11.012 13.657 5.94l19.354-19.357a7.855 7.855 0 0 1 6.1-2.331 8.4 8.4 0 0 1 5.8 2.99l11.587 14.483a8.038 8.038 0 0 1 -.779 10.836l-83.169 77.882 10.936 11.68 83.176-77.884a24.117 24.117 0 0 0 2.337-32.512l-7.895-9.867 37.622-6.27z"/><path d="m327.558 231.753-3.358 7.262-3.369 7.256c.728.337 17.4 7.976 35.652 7.976.728 0 1.461-.012 2.194-.037l-.553-15.99c-15.186.508-30.414-6.397-30.566-6.467z"/><path d="m328.805 201.415h27.989v16.001h-27.989z" transform="matrix(.514 -.857 .857 .514 -13.143 395.616)"/><path d="m440 443.957v-27.957h-16v32a8 8 0 0 0 3.562 6.656c13.838 9.225 17.438 26.644 14.865 39.811l15.7 3.066c3.373-17.233-1.098-39.85-18.127-53.576z"/><path d="m337.219 200.868-2-15.875c-10.591 1.328-19.869-9.567-19.962-9.677l-12.323 10.2c.56.679 13.06 15.585 30.481 15.585a30.466 30.466 0 0 0 3.804-.233z"/><path d="m398.318 217.505-4.982-15.2c-10.129 3.321-21.327-5.609-21.44-5.7l-10.153 12.365c.6.493 12.4 10.064 26.9 10.064a30.936 30.936 0 0 0 9.675-1.529z"/><path d="m199.96 39.2c-.465-4.633-9.5-10.452-9.846-10.642a99.449 99.449 0 0 0 -66.682-10.853 98.017 98.017 0 0 0 -57.608 33.823l12.352 10.172a81.984 81.984 0 0 1 48.2-28.262 83.519 83.519 0 0 1 24.149-.964l-28.671 34.404 12.292 10.244 34.017-40.822a82.6 82.6 0 0 1 12.037 5.089l-45.67 52.55-20.1-13.092a16.91 16.91 0 0 0 -23.64 5.321 202.332 202.332 0 0 0 -29.831 97.832h-28.8a204.805 204.805 0 0 1 35.725-107.8l2.724-3.993-13.216-9.015-2.725 3.994a220.675 220.675 0 0 0 -38.667 124.814v40a8 8 0 0 0 8 8v256h16v-24h16v24h16v-256h4a28 28 0 0 0 .992-55.975 186.329 186.329 0 0 1 27.437-89.485.909.909 0 0 1 1.271-.287l25.933 16.894a8 8 0 0 0 10.406-1.456l56-64.444a8 8 0 0 0 1.921-6.047zm-159.96 368.8h16v16h-16zm0-16v-16h16v16zm0-32v-16h16v16zm0-32v-16h16v16zm0-32v-16h16v16zm0 160v-16h16v16zm16-192h-16v-24h16zm32-52a12.013 12.013 0 0 1 -12 12h-44v-24h44a12.013 12.013 0 0 1 12 12z"/><path d="m184.485 84.485h16.001v24h-16.001z" transform="matrix(.707 -.707 .707 .707 -11.848 164.368)"/><path d="m212.769 112.769h16.001v24h-16.001z" transform="matrix(.707 -.707 .707 .707 -23.563 192.652)"/><path d="m241.053 141.054h16.001v24h-16.001z" transform="matrix(.707 -.707 .707 .707 -35.279 220.936)"/><path d="m159.502 110.171h15.999v24h-15.999z" transform="matrix(.848 -.531 .531 .848 -39.302 107.509)"/><path d="m180.728 144.075h16.001v24h-16.001z" transform="matrix(.848 -.531 .531 .848 -54.056 123.925)"/><path d="m201.955 177.978h15.999v24h-15.999z" transform="matrix(.848 -.531 .531 .848 -68.815 140.376)"/><path d="m223.181 211.882h15.999v24h-15.999z" transform="matrix(.848 -.531 .531 .848 -83.569 156.797)"/><path d="m244.407 245.785h15.999v24.001h-15.999z" transform="matrix(.848 -.531 .531 .848 -98.326 173.233)"/><path d="m265.633 279.69h15.999v24h-15.999z" transform="matrix(.848 -.531 .531 .848 -113.081 189.659)"/><path d="m210.243 58.251h16v24h-16z" transform="matrix(.521 -.854 .854 .521 44.575 219.933)"/><path d="m244.385 79.09h16.001v24h-16.001z" transform="matrix(.521 -.854 .854 .521 43.152 259.07)"/></g></svg>