<svg height="512" viewBox="0 0 512 512" width="512" xmlns="http://www.w3.org/2000/svg"><g id="Outline"><path d="m388.974 96.135a113.935 113.935 0 0 0 -36.537 3.99l-.8.232a348.191 348.191 0 0 1 -95.637 13.393c-43.037 0-84.3-17.75-126.74-17.75a113.442 113.442 0 0 0 -72 25.827l10.18 12.346a97.409 97.409 0 0 1 61.82-22.173c20.053 0 39.323 7.657 58.823 11.36a364.441 364.441 0 0 0 67.917 6.39 364.241 364.241 0 0 0 100.054-14.016l.8-.232c59.168-17.089 123.146 24.043 123.146 87.521v27.207a90.986 90.986 0 0 1 -80.856 90.443 31.984 31.984 0 0 0 -58.694-8.925c-.593 1-34.45-6.248-44.55-7.316a352.634 352.634 0 0 0 -49.744-1.607c-39.556 1.422-77.856 18.435-116.896 18.435a97.262 97.262 0 0 1 -97.26-97.26v-14.74a97.4 97.4 0 0 1 22.173-61.82l-12.346-10.177a113.438 113.438 0 0 0 -25.827 71.997v125.482a113.256 113.256 0 0 0 144.361 108.9c49.823-14.229 101.863-18.161 153.138-10.078 15.978 2.519 32.092 6.6 47.9 10.819a107.042 107.042 0 0 0 132.627-82.858l-15.7-3.056a91.046 91.046 0 0 1 -112.8 70.455c-50.865-13.563-102.1-19.392-154.566-12.388q-6.678.893-13.32 2.032c-22.712 3.902-45.196 13.432-68.382 13.432a97.368 97.368 0 0 1 -97.258-97.258v-52.616a114.029 114.029 0 0 0 17.173 21.96 112.516 112.516 0 0 0 80.087 33.174c33.05 0 65.717-14.3 98.815-17.273a348.862 348.862 0 0 1 107.946 7.166c-.007.282-.021.563-.021.847a32 32 0 0 0 62.758 8.807 106.339 106.339 0 0 0 66.954-31.965 107.684 107.684 0 0 0 14.288-18.259v54.394h16v-137.957a107.543 107.543 0 0 0 -31.324-75.584c-19.109-19.136-47.602-29.964-75.702-31.301zm-20.974 247.865a16 16 0 1 1 16-16 16.019 16.019 0 0 1 -16 16z"/><path d="m72 384a24 24 0 1 0 24-24 24.028 24.028 0 0 0 -24 24zm32 0a8 8 0 1 1 -8-8 8.009 8.009 0 0 1 8 8z"/><path d="m144 176a32 32 0 1 0 -32 32 32.036 32.036 0 0 0 32-32zm-32 16a16 16 0 1 1 16-16 16.019 16.019 0 0 1 -16 16z"/><path d="m152 248a24 24 0 1 0 24-24 24.028 24.028 0 0 0 -24 24zm24-8a8 8 0 1 1 -8 8 8.009 8.009 0 0 1 8-8z"/><path d="m440 168a32 32 0 1 0 -32 32 32.036 32.036 0 0 0 32-32zm-32 16a16 16 0 1 1 16-16 16.019 16.019 0 0 1 -16 16z"/><path d="m376 240a24 24 0 1 0 -24 24 24.028 24.028 0 0 0 24-24zm-32 0a8 8 0 1 1 8 8 8.009 8.009 0 0 1 -8-8z"/><path d="m264 160h16v16h-16z"/><path d="m304 192h16v16h-16z"/><path d="m104 256h16v16h-16z"/><path d="m408 264h16v16h-16z"/><path d="m264 352h16v16h-16z"/><path d="m144 352h16v16h-16z"/><path d="m416 368h16v16h-16z"/><path d="m168 168h16v16h-16z"/></g></svg>