<?xml version="1.0"?>
<svg xmlns="http://www.w3.org/2000/svg" viewBox="0 0 512 512" width="512" height="512"><g id="Outline"><path d="M111.005,272.56a71.5,71.5,0,0,0-18.014,4.7l6.018,14.824A55.6,55.6,0,0,1,113,288.435Z"/><path d="M64,360V344a55.662,55.662,0,0,1,22-44.47l-9.734-12.7A71.541,71.541,0,0,0,48,344v16Z"/><path d="M496,376V200a8,8,0,0,0-8-8H408a8,8,0,0,0-8,8v40H344V208a8,8,0,0,0-8-8H320V168a8,8,0,0,0-8-8H288V112h16a8,8,0,0,0,7.923-6.947C333.233,107.716,354.453,112,376,112a32,32,0,0,0,0-64c-20.9,0-42.982,4.31-64.077,6.947A8,8,0,0,0,304,48H208a8,8,0,0,0-7.923,6.947C178.926,52.3,157.337,48,136,48V64h6.506a15.821,15.821,0,0,1,1.984.124L200,71.062V88.938C182.6,91.112,165.281,94,147.794,95.38,136.087,96.307,120,96.082,120,80a15.971,15.971,0,0,1,4.072-10.665L112.15,58.665A32,32,0,0,0,136,112c21.3,0,42.963-4.308,64.077-6.947A8,8,0,0,0,208,112h16v48H200a8,8,0,0,0-8,8v32H176a8,8,0,0,0-8,8v32H120a103.318,103.318,0,0,0-73.539,30.461l11.313,11.314A87.423,87.423,0,0,1,120,256h56a8,8,0,0,0,8-8V216H328v24H208v16H400V368H336a8,8,0,0,0-6.4,3.2A72.346,72.346,0,0,1,272,400H240a72.346,72.346,0,0,1-57.6-28.8A8,8,0,0,0,176,368H128a8,8,0,0,0-8,8v32H48v16h72v24H32V344a87.334,87.334,0,0,1,16.858-51.808l-12.925-9.429A103.22,103.22,0,0,0,16,344V456a8,8,0,0,0,8,8H128a8,8,0,0,0,8-8V384h36.12A88.458,88.458,0,0,0,240,416h32a88.458,88.458,0,0,0,67.88-32H400v32a8,8,0,0,0,8,8h80a8,8,0,0,0,8-8V392H480v16H416V352h64v24ZM367.52,64.217q4.24-.21,8.48-.217a16,16,0,1,1,0,32c-21.25,0-42.933-4.429-64-7.062V71.062C330.364,68.767,348.951,65.137,367.52,64.217ZM216,64h80V96H216Zm24,48h32v48H240Zm-32,88V176h96v24Zm272,8v56H416V208ZM416,336V280h64v56Z"/></g></svg>
