<svg height="512" viewBox="0 0 512 512" width="512" xmlns="http://www.w3.org/2000/svg"><g id="Outline"><path d="m496 408v-152a120.136 120.136 0 0 0 -120-120h-208a119.879 119.879 0 0 0 -100.143 53.886 64 64 0 0 1 60.143-85.886h116.657a64.208 64.208 0 0 0 14.552 21.714l11.2-11.428a48.224 48.224 0 0 1 -7.963-10.286h41.554a24 24 0 0 0 0-48h-41.557a47.992 47.992 0 0 1 89.557 24 47.732 47.732 0 0 1 -13.714 33.6l11.428 11.2a64 64 0 0 0 -45.714-108.8 64.434 64.434 0 0 0 -59.329 40h-116.671a112 112 0 0 0 -1.58 223.981 48 48 0 0 0 89.58-23.981 47.517 47.517 0 0 0 -4.009-19.2 48 48 0 0 0 -85.535-4.838 63.944 63.944 0 0 1 -49.767-25.752 103.965 103.965 0 1 1 -11.636 64.658l-15.838 2.266a120.019 120.019 0 0 0 118.785 102.866h104v112a8 8 0 0 0 11.578 7.155l12.422-6.211 12.422 6.211a8 8 0 0 0 7.156 0l12.422-6.211 12.422 6.211a8 8 0 0 0 7.156 0l12.422-6.211 12.422 6.211a8 8 0 0 0 7.156 0l12.422-6.211 12.422 6.211a8 8 0 0 0 7.156 0l12.422-6.211 12.422 6.211a8 8 0 0 0 7.156 0l12.422-6.211 12.422 6.211a8 8 0 0 0 7.156 0l16-8a8 8 0 0 0 4.422-7.155v-56h-16v51.056l-8 4-12.422-6.211a8 8 0 0 0 -7.156 0l-12.422 6.211-12.422-6.211a8 8 0 0 0 -7.156 0l-12.422 6.211-12.422-6.211a8 8 0 0 0 -7.156 0l-12.422 6.211-12.422-6.211a8 8 0 0 0 -7.156 0l-12.422 6.211-12.422-6.211a8 8 0 0 0 -7.156 0l-12.422 6.211-12.422-6.211a8 8 0 0 0 -7.156 0l-4.422 2.211v-219.056a120.075 120.075 0 0 0 -60.184-104h148.184a104.118 104.118 0 0 1 104 104v32h-16v16h16v104zm-328-120a31.982 31.982 0 0 1 -21.165-8h42.33a31.982 31.982 0 0 1 -21.165 8zm0-64a31.98 31.98 0 0 1 21.163 8h-42.328a31.982 31.982 0 0 1 21.165-8zm-40 24h70.988a32.127 32.127 0 0 1 0 16h-70.988a96 96 0 0 1 0-192h176a8 8 0 0 1 0 16h-176a80 80 0 0 0 0 160zm144 112h-44.184a120.907 120.907 0 0 0 44.184-44.184z"/><path d="m304 288h16v16h-16z"/><path d="m336 288h16v16h-16z"/><path d="m368 288h16v16h-16z"/><path d="m400 288h16v16h-16z"/><path d="m432 288h16v16h-16z"/></g></svg>